<svg xmlns="http://www.w3.org/2000/svg" width="100" height="100" viewBox="0 0 810 810">
  <g clip-path="url(#clip1)">
    <path fill="#3c363c" d="M 229.253906 15.828125 C 225.566406 15.828125 221.90625 16.828125 218.667969 18.789062 L 207.070312 25.796875 C 206.878906 25.902344 206.675781 26.03125 206.472656 26.148438 L 151.535156 59.394531 L 136.9375 68.210938 C 127.480469 73.929688 124.273438 86.144531 129.726562 95.78125 C 129.886719 96.078125 148.148438 128.898438 154.761719 168.683594 C 162.917969 217.714844 150.042969 254.664062 116.488281 278.519531 C 111.101562 282.351562 107.886719 288.570312 107.886719 295.183594 L 107.886719 773.605469 C 107.886719 784.894531 117.042969 794.050781 128.34375 794.050781 L 681.839844 794.050781 C 693.125 794.050781 702.285156 784.894531 702.285156 773.605469 L 702.285156 295.183594 C 702.285156 288.570312 699.078125 282.351562 693.691406 278.519531 C 611.457031 220.054688 679.75 97.015625 680.453125 95.78125 C 685.894531 86.144531 682.710938 73.929688 673.246094 68.210938 L 593.75 20.128906 L 591.523438 18.789062 C 588.285156 16.828125 584.613281 15.828125 580.925781 15.828125 C 578.148438 15.828125 575.367188 16.390625 572.75 17.53125 C 526.882812 37.519531 474.394531 47.65625 416.730469 47.65625 C 317.449219 47.65625 237.355469 17.480469 236.558594 17.167969 C 234.195312 16.273438 231.722656 15.828125 229.253906 15.828125 Z M 580.925781 36.273438 L 583.164062 37.636719 L 662.648438 85.707031 C 662.648438 85.707031 583.621094 225.371094 681.839844 295.183594 L 681.839844 773.605469 L 128.34375 773.605469 L 128.34375 295.183594 C 226.546875 225.371094 147.519531 85.707031 147.519531 85.707031 L 162.121094 76.878906 L 217.070312 43.644531 L 217.070312 43.652344 L 229.253906 36.273438 C 229.253906 36.273438 312.527344 68.113281 416.730469 68.113281 C 468.824219 68.113281 526.160156 60.148438 580.925781 36.273438 " fill-opacity="1" fill-rule="nonzero"/>
    <path fill="#ffbd59" d="M 662.648438 85.707031 L 583.164062 37.636719 L 580.925781 36.273438 C 416.621094 107.898438 229.253906 36.273438 229.253906 36.273438 L 217.070312 43.652344 L 217.070312 43.644531 L 147.519531 85.707031 C 147.519531 85.707031 226.546875 225.371094 128.34375 295.183594 L 128.34375 773.605469 L 681.839844 773.605469 L 681.839844 295.183594 C 583.621094 225.371094 662.648438 85.707031 662.648438 85.707031 " fill-opacity="1" fill-rule="nonzero"/>
    <path fill="#c93518" d="M 229.253906 36.273438 C 229.253906 36.273438 416.621094 107.898438 580.925781 36.273438 C 580.925781 36.273438 522.859375 200.546875 399.308594 200.546875 C 275.757812 200.546875 229.253906 36.273438 229.253906 36.273438 " fill-opacity="1" fill-rule="nonzero"/>
    <path fill="#551507" d="M 128.34375 318.476562 C 222.925781 247.328125 184.410156 131.667969 159.40625 78.53125 L 188.691406 60.808594 C 213.863281 92.097656 229.59375 135.695312 229.59375 184.105469 C 229.59375 264.378906 186.550781 331.648438 128.34375 350.835938 L 128.34375 318.476562 " fill-opacity="1" fill-rule="nonzero"/>
    <path fill="#ffffff" d="M 199.585938 187.042969 C 199.585938 140.65625 185.546875 100.019531 162.121094 76.878906 L 147.519531 85.707031 C 147.519531 85.707031 226.546875 225.371094 128.34375 295.183594 L 128.34375 316.027344 C 171.535156 306.898438 199.585938 252.726562 199.585938 187.042969 " fill-opacity="1" fill-rule="nonzero"/>
    <path fill="#551507" d="M 681.839844 318.476562 C 587.253906 247.328125 625.761719 131.667969 650.773438 78.53125 L 621.488281 60.808594 C 596.304688 92.097656 580.585938 135.695312 580.585938 184.105469 C 580.585938 264.378906 623.628906 331.648438 681.839844 350.835938 L 681.839844 318.476562 " fill-opacity="1" fill-rule="nonzero"/>
    <path fill="#ffffff" d="M 604.984375 187.042969 C 604.984375 252.003906 638.292969 305.726562 681.839844 315.714844 L 681.839844 295.183594 C 583.621094 225.371094 662.648438 85.707031 662.648438 85.707031 L 647.761719 76.707031 C 622.085938 99.808594 604.984375 140.527344 604.984375 187.042969 " fill-opacity="1" fill-rule="nonzero"/>
    <path fill="#551507" d="M 583.164062 37.636719 L 580.925781 36.273438 C 580.925781 36.273438 522.859375 200.546875 399.308594 200.546875 C 275.757812 200.546875 229.253906 36.273438 229.253906 36.273438 L 217.070312 43.652344 L 217.070312 43.644531 L 206.816406 49.851562 C 231.414062 112.757812 291.175781 227.246094 400.382812 227.246094 C 509.003906 227.246094 576.0625 113.9375 604.984375 50.832031 L 583.164062 37.636719 " fill-opacity="1" fill-rule="nonzero"/>
  </g>
  <defs>
    <clipPath id="clip1">
      <rect width="810" height="810" fill="white"/>
    </clipPath>
  </defs>
</svg>