<?xml version="1.0" encoding="UTF-8"?>
<svg xmlns="http://www.w3.org/2000/svg" xmlns:xlink="http://www.w3.org/1999/xlink" width="1080" zoomAndPan="magnify" viewBox="0 0 810 809.999993" height="1080" preserveAspectRatio="xMidYMid meet" version="1.0"><path fill="#0e706d" d="M 471.316406 48.3125 C 465.203125 42.652344 456.75 38.6875 448.597656 35.628906 C 445.25 34.363281 441.949219 33.246094 438.886719 32.214844 C 433.421875 30.40625 427.78125 28.8125 422.066406 27.53125 C 416.585938 26.265625 410.992188 25.273438 405.382812 24.625 L 405.335938 24.625 C 399.726562 25.273438 394.132812 26.265625 388.652344 27.53125 C 382.9375 28.8125 377.296875 30.40625 371.832031 32.214844 C 368.753906 33.246094 365.453125 34.363281 362.097656 35.628906 C 353.949219 38.6875 345.519531 42.652344 339.402344 48.3125 C 339.230469 38.980469 340.730469 29.871094 345.941406 21.863281 C 348.066406 18.601562 350.554688 15.851562 353.34375 13.484375 L 353.375 13.46875 C 358.855469 11.320312 364.78125 9.648438 370.988281 8.351562 C 381.949219 6.023438 393.75 4.867188 405.367188 4.296875 C 422.355469 5.140625 439.710938 7.234375 454.292969 12.351562 C 455.324219 12.699219 456.328125 13.078125 457.34375 13.46875 L 457.375 13.484375 C 460.164062 15.851562 462.652344 18.601562 464.785156 21.863281 C 469.988281 29.871094 471.488281 38.980469 471.316406 48.3125 " fill-opacity="1" fill-rule="nonzero"/><path fill="#0e706d" d="M 471.226562 51.046875 C 470.804688 59.664062 469.121094 68.390625 467.824219 76.472656 C 456.328125 148.171875 442.199219 219.441406 426.90625 290.425781 C 419.972656 322.5625 412.644531 354.605469 405.367188 386.652344 C 398.070312 354.605469 390.742188 322.5625 383.8125 290.425781 C 368.515625 219.441406 354.390625 148.171875 342.894531 76.472656 C 341.597656 68.390625 339.910156 59.664062 339.488281 51.046875 C 345.539062 45.417969 353.96875 41.289062 362.429688 38.21875 C 370 35.46875 377.621094 33.523438 383.617188 32.054688 C 390.832031 30.292969 398.097656 29.160156 405.367188 28.460938 C 412.644531 29.160156 419.886719 30.292969 427.097656 32.054688 C 433.074219 33.523438 440.660156 35.445312 448.199219 38.175781 C 456.695312 41.273438 465.164062 45.378906 471.226562 51.046875 " fill-opacity="1" fill-rule="nonzero"/><path fill="#e3da0b" d="M 301.410156 266.925781 C 294.695312 267.363281 287.976562 267.769531 281.25 267.566406 C 280.058594 267.527344 278.882812 267.453125 277.699219 267.378906 C 268.222656 266.757812 259.007812 265.328125 249.804688 263.601562 C 256.289062 249.433594 261.988281 234.476562 266.609375 219.441406 C 266.84375 218.710938 267.0625 217.972656 267.289062 217.242188 C 274.472656 224.742188 281.101562 232.480469 286.84375 241.425781 C 292.136719 249.671875 296.625 258.378906 301.410156 266.925781 " fill-opacity="1" fill-rule="nonzero"/><path fill="#e3da0b" d="M 408.097656 504.886719 C 408.171875 509.421875 404.566406 514.003906 399.628906 514.714844 C 399.011719 514.804688 398.386719 514.828125 397.78125 514.773438 C 392.8125 514.546875 388.578125 510.5 388.328125 505.324219 C 388.027344 499.445312 393.144531 494.621094 398.957031 495.011719 L 399.140625 495.011719 C 404.191406 495.449219 408.097656 499.867188 408.097656 504.886719 " fill-opacity="1" fill-rule="nonzero"/><path fill="#e3da0b" d="M 395.890625 626.503906 C 395.914062 628.335938 395.347656 630.152344 394.300781 631.726562 L 394.300781 631.742188 C 393.476562 633.089844 392.300781 634.222656 390.929688 635.042969 C 389.859375 635.691406 388.691406 636.128906 387.414062 636.308594 C 385.832031 636.535156 384.292969 636.363281 382.882812 635.871094 C 379.160156 634.589844 376.300781 631.125 376.105469 626.941406 C 375.84375 621.242188 380.628906 616.496094 386.238281 616.585938 C 386.457031 616.585938 386.675781 616.601562 386.917969 616.621094 C 387.210938 616.644531 387.484375 616.675781 387.761719 616.734375 C 389.375 617.007812 390.855469 617.707031 392.082031 618.710938 L 392.097656 618.726562 C 394.40625 620.558594 395.875 623.421875 395.890625 626.503906 " fill-opacity="1" fill-rule="nonzero"/><path fill="#0a9190" d="M 311.875 273.792969 C 311.855469 276.363281 311.671875 278.96875 311.46875 281.585938 C 301.320312 283.21875 291.40625 285.164062 280.957031 285.253906 C 279.78125 285.253906 278.589844 285.234375 277.398438 285.203125 C 266.171875 284.8125 255.285156 282.796875 244.527344 280.03125 C 244.109375 278.691406 243.71875 277.339844 243.425781 275.941406 C 242.640625 272.164062 242.179688 268.296875 242.046875 264.429688 C 243.628906 264.835938 245.203125 265.214844 246.796875 265.5625 C 247.4375 265.710938 248.0625 265.855469 248.703125 265.96875 C 257.71875 267.914062 266.917969 269.109375 275.972656 269.878906 C 277.84375 270.039062 279.765625 270.203125 281.726562 270.347656 C 288.835938 270.957031 296.441406 271.484375 303.921875 271.34375 C 304.75 271.320312 305.582031 271.304688 306.410156 271.265625 C 308.226562 271.191406 310.042969 271.085938 311.832031 270.925781 C 311.875 271.871094 311.875 272.84375 311.875 273.792969 " fill-opacity="1" fill-rule="nonzero"/><path fill="#0a9190" d="M 285.871094 505.714844 C 285.871094 513.265625 285.609375 520.855469 284.855469 528.386719 C 284.183594 535.101562 283.761719 543.023438 281.613281 549.511719 C 277.105469 563.183594 266.828125 555.59375 260.027344 550.882812 C 257.992188 549.46875 255.957031 548.082031 253.925781 546.6875 C 250.882812 544.582031 247.804688 542.472656 244.765625 540.324219 C 243.238281 539.246094 241.855469 538.199219 240.621094 537.097656 C 239.300781 535.960938 238.148438 534.769531 237.175781 533.503906 C 234.503906 530.097656 233.035156 526.058594 232.800781 520.433594 C 232.335938 509.890625 233.253906 499.148438 234.808594 488.613281 C 235.476562 489.082031 236.15625 489.546875 236.828125 489.984375 C 238.035156 490.828125 239.285156 491.613281 240.566406 492.351562 C 245.5 495.304688 250.753906 497.761719 256.332031 499.738281 C 257.863281 500.289062 259.589844 500.875 261.40625 501.480469 C 268.824219 503.914062 278.121094 506.355469 285.871094 505.714844 " fill-opacity="1" fill-rule="nonzero"/><path fill="#0a9190" d="M 577.917969 520.433594 C 577.683594 526.058594 576.214844 530.097656 573.539062 533.503906 C 572.566406 534.769531 571.417969 535.960938 570.097656 537.097656 C 568.871094 538.199219 567.46875 539.246094 565.953125 540.324219 C 562.800781 542.546875 559.632812 544.726562 556.460938 546.90625 C 554.539062 548.230469 552.613281 549.542969 550.691406 550.882812 C 543.890625 555.59375 533.609375 563.183594 529.105469 549.511719 C 526.957031 543.023438 526.535156 535.101562 525.855469 528.386719 C 525.109375 520.855469 524.847656 513.265625 524.847656 505.714844 C 532.523438 506.355469 541.726562 503.957031 549.125 501.539062 C 551.015625 500.914062 552.796875 500.304688 554.386719 499.738281 C 559.964844 497.761719 565.214844 495.304688 570.152344 492.351562 C 571.433594 491.613281 572.683594 490.828125 573.890625 489.984375 C 574.5625 489.546875 575.242188 489.082031 575.898438 488.613281 C 577.464844 499.148438 578.378906 509.890625 577.917969 520.433594 " fill-opacity="1" fill-rule="nonzero"/><path fill="#0a9190" d="M 522.707031 141.492188 C 513.0625 165.972656 503.976562 190.695312 494.152344 215.0625 C 480.191406 249.710938 465.457031 283.988281 449.277344 317.679688 C 435.675781 345.988281 421.296875 373.996094 409.046875 402.925781 C 408.773438 401.71875 408.503906 400.511719 408.226562 399.292969 C 407.824219 397.503906 407.417969 395.703125 406.996094 393.910156 C 408.535156 387.210938 410.078125 380.523438 411.601562 373.832031 C 428.972656 297.757812 445.71875 221.589844 459.886719 144.832031 C 463.363281 125.953125 466.722656 107.027344 469.929688 88.109375 C 471.738281 77.375 474.179688 66.242188 474.988281 55.15625 C 475.0625 54.273438 475.109375 53.371094 475.136719 52.496094 C 475.355469 48.0625 475.28125 43.65625 474.761719 39.296875 C 473.796875 31.007812 470.878906 24.230469 466.589844 18.691406 C 466.941406 18.910156 467.289062 19.144531 467.636719 19.386719 C 471.578125 22.136719 475.109375 25.46875 478.410156 29.191406 C 482.480469 33.8125 486.152344 39.019531 489.703125 44.410156 C 492.042969 47.949219 494.335938 51.597656 496.664062 55.1875 C 504.179688 66.847656 511.984375 78.144531 522.8125 85.070312 C 513.671875 90.1875 504.527344 95.410156 495.511719 100.742188 C 494.890625 101.109375 494.25 101.5 493.625 101.863281 C 490.195312 103.898438 486.808594 105.949219 483.433594 108.042969 C 482.851562 108.390625 482.277344 108.753906 481.691406 109.105469 C 481.019531 109.527344 481.457031 110.554688 482.226562 110.371094 C 482.941406 110.207031 483.652344 110.019531 484.367188 109.835938 C 488.128906 108.867188 491.867188 107.652344 495.570312 106.242188 C 501.851562 119.71875 510.9375 132.675781 522.707031 141.492188 " fill-opacity="1" fill-rule="nonzero"/><path fill="#0a9190" d="M 411.414062 427.109375 C 410.296875 424.171875 409.160156 421.277344 408.007812 418.398438 C 407.125 416.183594 406.25 413.996094 405.367188 411.816406 C 405.148438 411.289062 404.945312 410.777344 404.726562 410.257812 C 404.597656 409.933594 404.449219 409.585938 404.304688 409.253906 C 404.144531 408.8125 403.957031 408.394531 403.769531 407.945312 C 403.074219 406.261719 402.382812 404.574219 401.671875 402.894531 C 389.40625 373.960938 375.042969 345.972656 361.441406 317.679688 C 345.261719 283.988281 330.523438 249.710938 316.566406 215.0625 C 306.742188 190.695312 297.648438 165.972656 288.007812 141.492188 C 299.777344 132.675781 308.867188 119.71875 315.148438 106.242188 C 318.820312 107.652344 322.539062 108.84375 326.261719 109.800781 C 327.007812 110.003906 327.746094 110.207031 328.492188 110.371094 C 329.261719 110.554688 329.699219 109.527344 329.023438 109.105469 C 328.417969 108.738281 327.816406 108.351562 327.210938 107.984375 C 323.878906 105.933594 320.507812 103.875 317.09375 101.863281 C 316.46875 101.5 315.828125 101.109375 315.203125 100.742188 C 306.191406 95.410156 297.046875 90.1875 287.902344 85.070312 C 298.734375 78.144531 306.539062 66.847656 314.054688 55.1875 C 316.378906 51.597656 318.675781 47.949219 321.015625 44.410156 C 324.273438 39.457031 327.632812 34.671875 331.335938 30.351562 L 331.390625 30.277344 C 334.910156 26.109375 338.753906 22.398438 343.082031 19.386719 C 343.429688 19.144531 343.777344 18.910156 344.125 18.691406 C 339.839844 24.230469 336.921875 31.007812 335.957031 39.296875 C 335.4375 43.65625 335.363281 48.0625 335.582031 52.496094 C 335.605469 53.371094 335.65625 54.273438 335.730469 55.15625 C 336.539062 66.242188 338.980469 77.375 340.785156 88.109375 C 343.996094 107.027344 347.351562 125.953125 350.832031 144.832031 C 365 221.589844 381.746094 297.757812 399.117188 373.832031 C 400.640625 380.523438 402.179688 387.210938 403.722656 393.910156 C 404.25 396.292969 404.800781 398.679688 405.367188 401.054688 C 405.625 402.214844 405.878906 403.367188 406.152344 404.515625 C 406.414062 405.675781 406.6875 406.8125 406.949219 407.945312 L 406.949219 407.972656 C 407.492188 410.355469 408.042969 412.714844 408.609375 415.097656 C 408.699219 415.519531 408.8125 415.941406 408.910156 416.363281 C 409.726562 419.941406 410.570312 423.53125 411.414062 427.109375 " fill-opacity="1" fill-rule="nonzero"/><path fill="#0a9190" d="M 399.449219 517.246094 C 392.519531 517.570312 386.414062 511.878906 386.457031 504.886719 C 386.511719 497.628906 392.941406 491.800781 400.179688 492.609375 C 406.527344 493.300781 411.03125 498.691406 411.195312 504.945312 C 410.960938 511.414062 406.082031 516.914062 399.449219 517.246094 M 395 635.464844 C 393.984375 636.460938 392.792969 637.265625 391.457031 637.832031 C 390.175781 638.414062 388.75 638.765625 387.226562 638.835938 C 380.320312 639.1875 374.199219 633.46875 374.25 626.503906 C 374.289062 619.464844 380.375 613.742188 387.332031 614.144531 C 387.558594 614.164062 387.761719 614.179688 387.980469 614.203125 C 389.246094 614.347656 390.4375 614.65625 391.53125 615.160156 C 395.933594 617.097656 398.867188 621.558594 398.972656 626.535156 C 398.839844 630.023438 397.375 633.234375 395 635.464844 M 315.277344 281.003906 C 315.246094 282.082031 315.171875 283.144531 315.058594 284.207031 C 313.792969 284.726562 312.511719 285.179688 311.214844 285.601562 C 291.015625 292.183594 265.78125 290.183594 245.5 282.851562 C 243.660156 282.195312 241.871094 281.496094 240.109375 280.726562 C 239.925781 280.0625 239.777344 279.390625 239.648438 278.707031 C 238.644531 273.792969 238.554688 268.613281 239.121094 263.640625 C 239.171875 262.945312 239.269531 262.246094 239.375 261.574219 C 240.242188 261.753906 241.117188 261.914062 242 262.101562 C 243.863281 262.464844 245.71875 262.832031 247.585938 263.195312 C 253.082031 247.011719 258.859375 230.769531 264.867188 214.730469 C 265.054688 214.21875 265.230469 213.683594 265.433594 213.171875 C 266.277344 213.796875 267.121094 214.4375 267.929688 215.117188 C 283.875 228.042969 295.695312 248.1875 304.34375 266.738281 C 306.773438 266.570312 309.230469 266.40625 311.671875 266.300781 C 312.585938 266.261719 313.503906 266.230469 314.402344 266.203125 C 314.605469 267.65625 314.78125 269.109375 314.929688 270.589844 C 315.277344 274.054688 315.421875 277.574219 315.277344 281.003906 M 424.738281 519.628906 C 423.710938 499.347656 421.183594 479.28125 418.710938 459.1875 C 418.5625 458.707031 418.394531 458.253906 418.230469 457.777344 C 414.332031 446.535156 410.003906 435.5 405.367188 424.578125 C 404.492188 422.519531 403.609375 420.449219 402.707031 418.398438 C 402.417969 417.71875 402.125 417.042969 401.808594 416.363281 C 401.121094 414.765625 400.421875 413.175781 399.683594 411.578125 L 399.683594 411.5625 C 399.117188 410.28125 398.550781 408.992188 397.964844 407.710938 C 383.796875 376.347656 368.332031 345.621094 353.5625 314.550781 C 327.5 259.734375 301.441406 202.890625 283.964844 144.28125 C 283.371094 142.375 282.828125 140.46875 282.277344 138.539062 C 283.453125 137.632812 284.605469 136.714844 285.738281 135.789062 C 289.535156 132.675781 293.214844 129.433594 296.625 125.824219 C 302.671875 119.371094 308.078125 112.582031 312.601562 105.195312 C 302.136719 100.859375 292.152344 94.785156 283.453125 87.582031 C 282.53125 86.871094 281.636719 86.097656 280.753906 85.289062 C 281.914062 84.542969 283.007812 83.746094 284.09375 82.945312 C 290.726562 77.957031 296.21875 71.820312 301.222656 65.195312 C 302.746094 63.183594 304.230469 61.125 305.695312 59.039062 C 301.871094 60.742188 298.125 62.375 294.753906 64.042969 C 282.554688 70.109375 270.160156 75.808594 257.570312 81.070312 C 236 90.089844 213.222656 99.714844 190.210938 105.761719 C 190.519531 106.183594 190.792969 106.632812 191.070312 107.085938 C 192.1875 108.972656 193.03125 111.082031 193.730469 113.265625 C 195.125 117.699219 195.867188 122.484375 196.972656 126.742188 C 199.046875 134.785156 201.074219 142.851562 203.132812 150.898438 C 207.785156 169.320312 212.476562 187.742188 216.96875 206.207031 C 217.035156 206.5 216.597656 206.628906 216.507812 206.335938 C 207.972656 177.28125 200.230469 148.003906 191.664062 118.964844 C 191.234375 117.539062 190.664062 116.011719 189.992188 114.527344 C 188.703125 111.648438 186.96875 108.902344 184.949219 107.085938 C 184.269531 106.484375 183.539062 105.964844 182.808594 105.601562 C 179.730469 104.132812 176.1875 105.089844 172.582031 110.847656 C 169.394531 115.921875 167.230469 121.785156 164.878906 127.269531 C 158.90625 141.148438 153.484375 155.269531 148.480469 169.507812 C 133.378906 212.476562 124.253906 256.15625 116.519531 300.546875 C 113.203125 326.921875 110.472656 353.429688 107.765625 379.808594 C 94.074219 513.140625 98.257812 646.09375 113.625 778.988281 C 119.4375 779.191406 125.25 779.226562 131.054688 779.09375 C 138.460938 778.949219 145.863281 778.527344 153.160156 777.855469 C 166.695312 776.605469 179.933594 773.742188 193.089844 770.558594 C 191.882812 763.609375 191.109375 756.570312 190.375 749.75 C 188.597656 733.144531 188.191406 716.40625 188.542969 699.703125 C 189.789062 639.808594 197.410156 579.609375 203.554688 520.050781 C 208.976562 467.441406 214.746094 414.660156 225.195312 362.796875 L 225.195312 362.78125 C 225.488281 361.222656 225.8125 359.683594 226.128906 358.125 C 226.476562 359.863281 226.824219 361.605469 227.175781 363.363281 L 227.175781 363.421875 C 227.449219 364.855469 227.726562 366.257812 227.976562 367.710938 L 227.976562 367.726562 C 228.105469 368.390625 228.234375 369.066406 228.339844 369.746094 C 232.6875 393.472656 235.855469 417.335938 237.859375 441.5 C 239.15625 457.09375 239.996094 472.695312 240.476562 488.28125 C 246.945312 491.46875 253.632812 494.199219 260.488281 496.292969 L 261 496.4375 C 266.277344 498.027344 271.699219 499.300781 277.132812 500.144531 C 280.097656 500.597656 283.007812 500.6875 285.851562 501.09375 C 286.671875  501.191406 287.480469 501.335938 288.285156 501.5 C 288.382812 502.746094 288.457031 504.027344 288.527344 505.367188 C 290.011719 531.046875 288.269531 570.957031 267.726562 559.574219 C 263.917969 557.464844 260.214844 554.992188 256.566406 552.421875 C 251.636719 548.902344 246.816406 545.179688 241.960938 541.808594 C 241.480469 541.484375 241.011719 541.148438 240.53125 540.800781 C 239.796875 569.53125 237.839844 598.238281 234.851562 626.925781 C 231.679688 657.285156 228.617188 687.894531 228.179688 718.457031 C 227.902344 738.363281 229.6875 757.589844 232.785156 776.785156 C 237.90625 778.339844 243.078125 779.867188 248.25 781.351562 C 270.605469 787.660156 293.269531 792.90625 316.265625 796.109375 C 334.757812 798.679688 352.191406 800.339844 364.976562 784.269531 C 374.816406 771.878906 380.042969 755.871094 385.582031 741.261719 C 392.15625 723.859375 398.039062 706.214844 403.113281 688.332031 C 403.898438 685.65625 404.636719 682.964844 405.367188 680.265625 C 408.851562 667.421875 411.925781 654.464844 414.566406 641.390625 C 419.113281 618.929688 422.007812 596.332031 424.464844 573.667969 C 424.941406 555.664062 425.671875 537.6875 424.738281 519.628906 " fill-opacity="1" fill-rule="nonzero"/><path fill="#0a9190" d="M 697.089844 778.988281 C 691.863281 779.167969 686.625 779.210938 681.382812 779.136719 C 673.398438 779.007812 665.421875 778.585938 657.558594 777.855469 C 644.023438 776.605469 630.792969 773.742188 617.628906 770.558594 C 618.84375 763.609375 619.605469 756.570312 620.34375 749.75 C 622.121094 733.144531 622.523438 716.40625 622.175781 699.703125 C 620.929688 639.808594 613.308594 579.609375 607.164062 520.050781 C 601.742188 467.441406 595.96875 414.660156 585.519531 362.796875 L 585.519531 362.78125 C 585.230469 361.222656 584.898438 359.683594 584.589844 358.125 C 584.242188 359.863281 583.890625 361.605469 583.542969 363.363281 L 583.542969 363.421875 C 583.339844 364.433594 583.164062 365.441406 582.960938 366.460938 C 582.757812 367.546875 582.554688 368.644531 582.375 369.746094 C 578.03125 393.472656 574.863281 417.335938 572.859375 441.5 C 571.5625 457.09375 570.71875 472.695312 570.242188 488.28125 C 563.773438 491.46875 557.085938 494.199219 550.226562 496.292969 C 549.96875 496.367188 549.71875 496.4375 549.457031 496.511719 C 544.253906 498.066406 538.945312 499.316406 533.59375 500.144531 C 530.621094 500.597656 527.710938 500.6875 524.871094 501.09375 C 524.046875 501.191406 523.234375 501.335938 522.433594 501.5 C 522.335938 502.746094 522.261719 504.027344 522.191406 505.367188 C 520.707031 531.046875 522.449219 570.957031 542.988281 559.574219 C 546.75 557.523438 550.359375 555.097656 553.933594 552.566406 C 558.933594 549.03125 563.828125 545.238281 568.757812 541.808594 C 569.238281 541.484375 569.707031 541.148438 570.183594 540.800781 C 570.914062 569.53125 572.882812 598.238281 575.867188 626.925781 C 579.035156 657.285156 582.101562 687.894531 582.539062 718.457031 C 582.8125 738.363281 581.03125 757.589844 577.933594 776.785156 C 572.714844 778.382812 567.46875 779.921875 562.21875 781.40625 C 539.949219 787.691406 517.375 792.921875 494.453125 796.109375 C 475.953125 798.679688 458.527344 800.339844 445.742188 784.269531 C 435.902344 771.878906 430.671875 755.871094 425.136719 741.261719 C 418.5625 723.859375 412.679688 706.214844 407.605469 688.332031 C 412.371094 670.972656 416.367188 653.394531 419.664062 635.722656 C 421.628906 625.253906 423.402344 614.699219 424.863281 604.066406 L 424.960938 603.921875 C 430.972656 576.773438 430.066406 547.257812 428.679688 519.628906 C 428.160156 509.121094 427.414062 498.546875 426.257812 487.988281 L 426.257812 487.949219 C 426.09375 486.433594 425.90625 484.890625 425.730469 483.367188 C 425.089844 477.957031 424.320312 472.589844 423.417969 467.230469 C 421.839844 457.792969 419.828125 448.425781 417.242188 439.261719 C 416.292969 434.988281 415.335938 430.714844 414.363281 426.449219 C 413.261719 421.480469 412.144531 416.527344 411.03125 411.578125 L 411.03125 411.5625 C 411.601562 410.28125 412.167969 408.992188 412.75 407.710938 C 426.921875 376.347656 442.386719 345.621094 457.15625 314.550781 C 483.214844 259.734375 509.269531 202.890625 526.753906 144.28125 C 527.335938 142.375 527.894531 140.46875 528.441406 138.539062 C 527.265625 137.632812 526.113281 136.714844 524.976562 135.789062 C 521.183594 132.675781 517.496094 129.433594 514.09375 125.824219 C 508.046875 119.371094 502.636719 112.582031 498.113281 105.195312 C 508.570312 100.859375 518.566406 94.785156 527.265625 87.582031 C 528.179688 86.871094 529.078125 86.097656 529.964844 85.289062 C 528.804688 84.542969 527.710938 83.746094 526.625 82.945312 C 519.570312 77.640625 513.832031 71.066406 508.597656 63.988281 C 507.363281 62.355469 506.195312 60.710938 505.019531 59.039062 C 508.847656 60.742188 512.59375 62.375 515.964844 64.042969 C 528.164062 70.109375 540.550781 75.808594 553.144531 81.070312 C 574.707031 90.089844 597.492188 99.714844 620.507812 105.761719 C 620.199219 106.183594 619.921875 106.632812 619.648438 107.085938 C 618.601562 108.828125 617.816406 110.734375 617.152344 112.753906 C 615.652344 117.320312 614.882812 122.320312 613.746094 126.742188 C 611.679688 134.785156 609.636719 142.851562 607.585938 150.898438 C 602.933594 169.320312 598.238281 187.742188 593.75 206.207031 C 593.683594 206.5 594.121094 206.628906 594.210938 206.335938 C 602.746094 177.28125 610.488281 148.003906 619.054688 118.964844 C 619.519531 117.367188 620.15625 115.664062 620.953125 114.019531 C 622.234375 111.34375 623.863281 108.789062 625.765625 107.085938 C 626.449219 106.484375 627.179688 105.964844 627.90625 105.601562 C 630.988281 104.132812 634.53125 105.089844 638.136719 110.847656 C 641.324219 115.921875 643.488281 121.785156 645.835938 127.269531 C 651.8125 141.148438 657.234375 155.269531 662.234375 169.507812 C 677.335938 212.476562 686.464844 256.15625 694.191406 300.546875 C 697.511719 326.921875 700.238281 353.429688 702.953125 379.808594 C 716.644531 513.140625 712.460938 646.09375 697.089844 778.988281 " fill-opacity="1" fill-rule="nonzero"/><path fill="#104648" d="M 697.089844 778.988281 C 683.878906 779.445312 670.578125 779.039062 657.558594 777.855469 C 644.023438 776.605469 630.792969 773.742188 617.628906 770.558594 C 618.84375 763.609375 619.605469 756.570312 620.34375 749.75 C 622.121094 733.144531 622.523438 716.40625 622.175781 699.703125 C 620.929688 639.808594 613.308594 579.609375 607.164062 520.050781 C 601.742188 467.441406 595.96875 414.660156 585.519531 362.796875 L 585.519531 362.78125 C 585.230469 361.222656 584.898438 359.683594 584.589844 358.125 C 584.242188 359.863281 583.890625 361.605469 583.542969 363.363281 L 583.542969 363.421875 C 583.144531 365.53125 582.742188 367.636719 582.375 369.746094 C 578.03125 393.472656 574.863281 417.335938 572.859375 441.5 C 571.5625 457.09375 570.71875 472.695312 570.242188 488.28125 C 563.773438 491.46875 557.085938 494.199219 550.226562 496.292969 C 544.789062 497.9375 539.195312 499.277344 533.59375 500.144531 C 530.621094 500.597656 527.710938 500.6875 524.871094 501.09375 C 524.046875 501.191406 523.234375 501.335938 522.433594 501.5 C 522.335938 502.746094 522.261719 504.027344 522.191406 505.367188 C 520.707031 531.046875 522.449219 570.957031 542.988281 559.574219 C 551.988281 554.601562 560.328125 547.679688 568.757812 541.808594 C 569.238281 541.484375 569.707031 541.148438 570.183594 540.800781 C 570.914062 569.53125 572.882812 598.238281 575.867188 626.925781 C 579.035156 657.285156 582.101562 687.894531 582.539062 718.457031 C 582.8125 738.363281 581.03125 757.589844 577.933594 776.785156 C 550.578125 785.113281 522.78125 792.167969 494.453125 796.109375 C 475.953125 798.679688 458.527344 800.339844 445.742188 784.269531 C 435.902344 771.878906 430.671875 755.871094 425.136719 741.261719 C 418.5625 723.859375 412.679688 706.214844 407.605469 688.332031 C 412.371094 670.972656 416.367188 653.394531 419.664062 635.722656 C 421.628906 625.253906 423.402344 614.699219 424.863281 604.066406 L 424.960938 603.921875 C 430.972656 576.773438 430.066406 547.257812 428.679688 519.628906 C 428.160156 509.121094 427.414062 498.546875 426.257812 487.988281 L 426.257812 487.949219 C 426.09375 486.433594 425.90625 484.890625 425.730469 483.367188 C 425.089844 477.957031 424.320312 472.589844 423.417969 467.230469 C 421.839844 457.792969 419.828125 448.425781 417.242188 439.261719 C 416.292969 434.988281 415.335938 430.714844 414.363281 426.449219 C 413.261719 421.480469 412.144531 416.527344 411.03125 411.578125 L 411.03125 411.5625 C 411.601562 410.28125 412.167969 408.992188 412.75 407.710938 C 426.921875 376.347656 442.386719 345.621094 457.15625 314.550781 C 483.214844 259.734375 509.269531 202.890625 526.753906 144.28125 C 527.335938 142.375 527.894531 140.46875 528.441406 138.539062 C 527.265625 137.632812 526.113281 136.714844 524.976562 135.789062 C 521.183594 132.675781 517.496094 129.433594 514.09375 125.824219 C 508.046875 119.371094 502.636719 112.582031 498.113281 105.195312 C 508.570312 100.859375 518.566406 94.785156 527.265625 87.582031 C 528.179688 86.871094 529.078125 86.097656 529.964844 85.289062 C 528.804688 84.542969 527.710938 83.746094 526.625 82.945312 C 517.957031 76.433594 511.253906 67.96875 505.019531 59.039062 C 508.847656 60.742188 512.59375 62.375 515.964844 64.042969 C 528.164062 70.109375 540.550781 75.808594 553.144531 81.070312 C 574.707031 90.089844 597.492188 99.714844 620.507812 105.761719 C 620.199219 106.183594 619.921875 106.632812 619.648438 107.085938 C 616.257812 112.824219 615.375 120.390625 613.746094 126.742188 C 611.679688 134.785156 609.636719 142.851562 607.585938 150.898438 C 602.933594 169.320312 598.238281 187.742188 593.75 206.207031 C 593.683594 206.5 594.121094 206.628906 594.210938 206.335938 C 602.746094 177.28125 610.488281 148.003906 619.054688 118.964844 C 620.289062 114.804688 622.6875 109.835938 625.765625 107.085938 C 626.449219 106.484375 627.179688 105.964844 627.90625 105.601562 C 630.988281 104.132812 634.53125 105.089844 638.136719 110.847656 C 641.324219 115.921875 643.488281 121.785156 645.835938 127.269531 C 651.8125 141.148438 657.234375 155.269531 662.234375 169.507812 C 677.335938 212.476562 686.464844 256.15625 694.191406 300.546875 C 697.511719 326.921875 700.238281 353.429688 702.953125 379.808594 C 716.644531 513.140625 712.460938 646.09375 697.089844 778.988281 M 575.898438 488.613281 C 577.464844 499.148438 578.378906 509.890625 577.917969 520.433594 C 577.683594 526.058594 576.214844 530.097656 573.539062 533.503906 C 572.566406 534.769531 571.417969 535.960938 570.097656 537.097656 C 568.871094 538.199219 567.46875 539.246094 565.953125 540.324219 C 560.878906 543.882812 555.765625 547.363281 550.691406 550.882812 C 543.890625 555.59375 533.609375 563.183594 529.105469 549.511719 C 526.957031 543.023438 526.535156 535.101562 525.855469 528.386719 C 525.109375 520.855469 524.847656 513.265625 524.847656 505.714844 C 534.488281 506.515625 546.523438 502.519531 554.386719 499.738281 C 559.964844 497.761719 565.214844 495.304688 570.152344 492.351562 C 571.433594 491.613281 572.683594 490.828125 573.890625 489.984375 C 574.5625 489.546875 575.242188 489.082031 575.898438 488.613281 M 403.113281 688.332031 C 398.039062 706.214844 392.15625 723.859375 385.582031 741.261719 C 380.042969 755.871094 374.816406 771.878906 364.976562 784.269531 C 352.191406 800.339844 334.757812 798.679688 316.265625 796.109375 C 287.9375 792.167969 260.140625 785.113281 232.785156 776.785156 C 229.6875 757.589844 227.902344 738.363281 228.179688 718.457031 C 228.617188 687.894531 231.679688 657.285156 234.851562 626.925781 C 237.839844 598.238281 239.796875 569.53125 240.53125 540.800781 C 241.011719 541.148438 241.480469 541.484375 241.960938 541.808594 C 250.390625 547.679688 258.730469 554.601562 267.726562 559.574219 C 288.269531 570.957031 290.011719 531.046875 288.527344 505.367188 C 288.457031 504.027344 288.382812 502.746094 288.285156 501.5 C 287.480469 501.335938 286.671875 501.191406 285.851562 501.09375 C 283.007812 500.6875 280.097656 500.597656 277.132812 500.144531 C 271.523438 499.277344 265.929688 497.9375 260.488281 496.292969 C 253.632812 494.199219 246.945312 491.46875 240.476562 488.28125 C 239.996094 472.695312 239.15625 457.09375 237.859375 441.5 C 235.855469 417.335938 232.6875 393.472656 228.339844 369.746094 C 227.976562 367.636719 227.578125 365.53125 227.175781 363.421875 L 227.175781 363.363281 C 226.824219 361.605469 226.476562 359.863281 226.128906 358.125 C 225.8125 359.683594 225.488281 361.222656 225.195312 362.78125 L 225.195312 362.796875 C 214.746094 414.660156 208.976562 467.441406 203.554688 520.050781 C 197.410156 579.609375 189.789062 639.808594 188.542969 699.703125 C 188.191406 716.40625 188.597656 733.144531 190.375 749.75 C 191.109375 756.570312 191.882812 763.609375 193.089844 770.558594 C 179.933594 773.742188 166.695312 776.605469 153.160156 777.855469 C 140.148438 779.039062 126.839844 779.445312 113.625 778.988281 C 98.257812 646.09375 94.074219 513.140625 107.765625 379.808594 C 110.472656 353.429688 113.203125 326.921875 116.519531 300.546875 C 124.253906 256.15625 133.378906 212.476562 148.480469 169.507812 C 153.484375 155.269531 158.90625 141.148438 164.878906 127.269531 C 167.230469 121.785156 169.394531 115.921875 172.582031 110.847656 C 176.1875 105.089844 179.730469 104.132812 182.808594 105.601562 C 183.539062 105.964844 184.269531 106.484375 184.949219 107.085938 C 188.03125 109.835938 190.429688 114.804688 191.664062 118.964844 C 200.230469 148.003906 207.972656 177.28125 216.507812 206.335938 C 216.597656 206.628906 217.035156 206.5 216.96875 206.207031 C 212.476562 187.742188 207.785156 169.320312 203.132812 150.898438 C 201.074219 142.851562 199.046875 134.785156 196.972656 126.742188 C 195.34375 120.390625 194.457031 112.824219 191.070312 107.085938 C 190.792969 106.632812 190.519531 106.183594 190.210938 105.761719 C 213.222656 99.714844 236 90.089844 257.570312 81.070312 C 270.160156 75.808594 282.554688 70.109375 294.753906 64.042969 C 298.125 62.375 301.871094 60.742188 305.695312 59.039062 C 299.464844 67.96875 292.757812 76.433594 284.09375 82.945312 C 283.007812 83.746094 281.914062 84.542969 280.753906 85.289062 C 281.636719 86.097656 282.53125 86.871094 283.453125 87.582031 C 292.152344 94.785156 302.136719 100.859375 312.601562 105.195312 C 308.078125 112.582031 302.671875 119.371094 296.625 125.824219 C 293.214844 129.433594 289.535156 132.675781 285.738281 135.789062 C 284.605469 136.714844 283.453125 137.632812 282.277344 138.539062 C 282.828125 140.46875 283.371094 142.375 283.964844 144.28125 C 301.441406 202.890625 327.5 259.734375 353.5625 314.550781 C 368.332031 345.621094 383.796875 376.347656 397.964844 407.710938 C 398.550781 408.992188 399.117188 410.28125 399.683594 411.5625 L 399.683594 411.578125 C 400.421875 413.175781 401.121094 414.765625 401.808594 416.363281 C 402.125 417.042969 402.417969 417.71875 402.707031 418.398438 C 403.609375 420.449219 404.492188 422.519531 405.367188 424.578125 C 410.003906 435.5 414.332031 446.535156 418.230469 457.777344 C 418.394531 458.253906 418.5625 458.707031 418.710938 459.1875 C 421.183594 479.28125 423.710938 499.347656 424.738281 519.628906 C 425.671875 537.6875 424.941406 555.664062 424.464844 573.667969 C 422.007812 596.332031 419.113281 618.929688 414.566406 641.390625 C 411.925781 654.464844 408.851562 667.421875 405.367188 680.265625 C 404.636719 682.964844 403.898438 685.65625 403.113281 688.332031 M 232.800781 520.433594 C 232.335938 509.890625 233.253906 499.148438 234.808594 488.613281 C 235.476562 489.082031 236.15625 489.546875 236.828125 489.984375 C 238.035156 490.828125 239.285156 491.613281 240.566406 492.351562 C 245.5 495.304688 250.753906 497.761719 256.332031 499.738281 C 264.1875 502.519531 276.230469 506.515625 285.871094 505.714844 C 285.871094 513.265625 285.609375 520.855469 284.855469 528.386719 C 284.183594 535.101562 283.761719 543.023438 281.613281 549.511719 C 277.105469 563.183594 266.828125 555.59375 260.027344 550.882812 C 254.953125 547.363281 249.839844 543.882812 244.765625 540.324219 C 243.238281 539.246094 241.855469 538.199219 240.621094 537.097656 C 239.300781 535.960938 238.148438 534.769531 237.175781 533.503906 C 234.503906 530.097656 233.035156 526.058594 232.800781 520.433594 M 314.054688 55.1875 C 316.378906 51.597656 318.675781 47.949219 321.015625 44.410156 C 327.429688 34.671875 334.246094 25.542969 343.082031 19.386719 C 343.429688 19.144531 343.777344 18.910156 344.125 18.691406 C 339.839844 24.230469 336.921875 31.007812 335.957031 39.296875 C 335.4375 43.65625 335.363281 48.0625 335.582031 52.496094 C 335.605469 53.371094 335.65625 54.273438 335.730469 55.15625 C 336.539062 66.242188 338.980469 77.375 340.785156 88.109375 C 343.996094 107.027344 347.351562 125.953125 350.832031 144.832031 C 365 221.589844 381.746094 297.757812 399.117188 373.832031 C 400.640625 380.523438 402.179688 387.210938 403.722656 393.910156 C 404.25 396.292969 404.800781 398.679688 405.367188 401.054688 C 405.878906 403.367188 406.414062 405.660156 406.949219 407.945312 L 406.949219 407.972656 C 407.589844 410.777344 408.246094 413.558594 408.910156 416.363281 C 409.726562 419.941406 410.570312 423.53125 411.414062 427.109375 C 410.296875 424.171875 409.160156 421.277344 408.007812 418.398438 C 407.125 416.183594 406.25 413.996094 405.367188 411.816406 C 405.148438 411.289062 404.945312 410.777344 404.726562 410.257812 C 404.417969 409.488281 404.101562 408.71875 403.769531 407.945312 C 403.074219 406.261719 402.382812 404.574219 401.671875 402.894531 C 389.40625 373.960938 375.042969 345.972656 361.441406 317.679688 C 345.261719 283.988281 330.523438 249.710938 316.566406 215.0625 C 306.742188 190.695312 297.648438 165.972656 288.007812 141.492188 C 299.777344 132.675781 308.867188 119.71875 315.148438 106.242188 C 319.550781 107.929688 324.023438 109.324219 328.492188 110.371094 C 329.261719 110.554688 329.699219 109.527344 329.023438 109.105469 C 325.085938 106.664062 321.105469 104.246094 317.09375 101.863281 C 316.46875 101.5 315.828125 101.109375 315.203125 100.742188 C 306.191406 95.410156 297.046875 90.1875 287.902344 85.070312 C 298.734375 78.144531 306.539062 66.847656 314.054688 55.1875 M 353.34375 13.484375 L 353.375 13.46875 C 368.550781 7.523438 387.183594 5.199219 405.367188 4.296875 C 423.546875 5.199219 442.167969 7.523438 457.34375 13.46875 L 457.375 13.484375 C 460.164062 15.851562 462.652344 18.601562 464.785156 21.863281 C 469.988281 29.871094 471.488281 38.980469 471.316406 48.3125 C 462.691406 40.324219 449.421875 35.71875 438.886719 32.214844 C 433.421875 30.40625 427.78125 28.8125 422.066406 27.53125 C 416.585938 26.265625 410.992188 25.273438 405.382812 24.625 L 405.335938 24.625 C 399.726562 25.273438 394.132812 26.265625 388.652344 27.53125 C 382.9375 28.8125 377.296875 30.40625 371.832031 32.214844 C 361.296875 35.71875 348.027344 40.324219 339.402344 48.3125 C 339.230469 38.980469 340.730469 29.871094 345.941406 21.863281 C 348.066406 18.601562 350.554688 15.851562 353.34375 13.484375 M 405.367188 386.652344 C 398.070312 354.605469 390.742188 322.5625 383.8125 290.425781 C 368.515625 219.441406 354.390625 148.171875 342.894531 76.472656 C 341.597656 68.390625 339.910156 59.664062 339.488281 51.046875 C 350.945312 40.375 370.902344 35.167969 383.617188 32.054688 C 390.832031 30.292969 398.097656 29.160156 405.367188 28.460938 C 412.644531 29.160156 419.886719 30.292969 427.097656 32.054688 C 439.816406 35.167969 459.773438 40.375 471.226562 51.046875 C 470.804688 59.664062 469.121094 68.390625 467.824219 76.472656 C 456.328125 148.171875 442.199219 219.441406 426.90625 290.425781 C 419.972656 322.5625 412.644531 354.605469 405.367188 386.652344 M 467.636719 19.386719 C 476.472656 25.542969 483.289062 34.671875 489.703125 44.410156 C 492.042969 47.949219 494.335938 51.597656 496.664062 55.1875 C 504.179688 66.847656 511.984375 78.144531 522.8125 85.070312 C 513.671875 90.1875 504.527344 95.410156 495.511719 100.742188 C 494.890625 101.109375 494.25 101.5 493.625 101.863281 C 489.613281 104.246094 485.632812 106.664062 481.691406 109.105469 C 481.019531 109.527344 481.457031 110.554688 482.226562 110.371094 C 486.695312 109.324219 491.167969 107.929688 495.570312 106.242188 C 501.851562 119.71875 510.9375 132.675781 522.707031 141.492188 C 513.0625 165.972656 503.976562 190.695312 494.152344 215.0625 C 480.191406 249.710938 465.457031 283.988281 449.277344 317.679688 C 435.675781 345.988281 421.296875 373.996094 409.046875 402.925781 C 408.375 399.917969 407.695312 396.910156 406.996094 393.910156 C 408.535156 387.210938 410.078125 380.523438 411.601562 373.832031 C 428.972656 297.757812 445.71875 221.589844 459.886719 144.832031 C 463.363281 125.953125 466.722656 107.027344 469.929688 88.109375 C 471.738281 77.375 474.179688 66.242188 474.988281 55.15625 C 475.0625 54.273438 475.109375 53.371094 475.136719 52.496094 C 475.355469 48.0625 475.28125 43.65625 474.761719 39.296875 C 473.796875 31.007812 470.878906 24.230469 466.589844 18.691406 C 466.941406 18.910156 467.289062 19.144531 467.636719 19.386719 M 714.332031 464.855469 C 712.515625 429.945312 709.695312 395.078125 705.652344 360.378906 C 704.273438 348.71875 702.628906 337.117188 700.773438 325.570312 L 700.773438 325.542969 C 697.109375 261.769531 678.109375 197.117188 654.375 138.402344 C 651.351562 130.917969 648.195312 123.472656 645.011719 116.054688 C 643.050781 111.519531 641.085938 106.339844 637.148438 103.085938 C 632.195312 99.042969 626.570312 99.789062 622.523438 103.507812 C 622.175781 103.386719 621.84375 103.257812 621.496094 103.128906 C 599.210938 94.621094 576.492188 87.378906 554.589844 77.625 C 541.796875 71.925781 529.105469 65.949219 516.589844 59.625 C 510.558594 56.582031 504.363281 52.398438 498.042969 48.757812 C 488.550781 34.625 478.832031 20.652344 463.332031 12.292969 C 460.835938 10.953125 458.316406 9.761719 455.746094 8.683594 L 455.730469 8.683594 C 451.109375 6.769531 446.382812 5.285156 441.527344 4.175781 L 441.503906 4.175781 L 441.453125 4.152344 C 440.902344 4.023438 440.328125 3.898438 439.785156 3.785156 C 428.605469 1.3125 417.023438 0.300781 405.367188 -0.0078125 C 393.695312 0.300781 382.109375 1.3125 370.933594 3.785156 C 370.382812 3.898438 369.8125 4.023438 369.261719 4.152344 L 369.214844 4.175781 L 369.191406 4.175781 C 364.335938 5.285156 359.609375 6.769531 354.988281 8.683594 L 354.972656 8.683594 C 352.410156 9.761719 349.882812 10.953125 347.386719 12.292969 C 331.886719 20.652344 322.167969 34.625 312.675781 48.757812 C 306.351562 52.398438 300.160156 56.582031 294.136719 59.625 C 281.613281 65.949219 268.917969 71.925781 256.128906 77.625 C 234.226562 87.378906 211.503906 94.621094 189.222656 103.128906 C 188.875 103.257812 188.542969 103.386719 188.191406 103.507812 C 184.148438 99.789062 178.515625 99.042969 173.570312 103.085938 C 169.628906 106.339844 167.667969 111.519531 165.707031 116.054688 C 162.519531 123.472656 159.367188 130.917969 156.34375 138.402344 C 132.609375 197.117188 113.609375 261.769531 109.945312 325.542969 L 109.945312 325.570312 C 108.097656 337.117188 106.445312 348.71875 105.074219 360.378906 C 101.023438 395.078125 98.199219 429.945312 96.386719 464.855469 C 92.792969 534.039062 93.394531 603.5 98.363281 672.609375 C 100.90625 708.167969 104.523438 743.613281 109.847656 778.84375 C 110.035156 780.050781 110.222656 781.261719 110.425781 782.46875 C 111.632812 782.671875 112.855469 782.832031 114.089844 783.003906 C 140.660156 786.523438 168.933594 784.941406 194.183594 776.257812 C 195.796875 775.707031 197.410156 775.121094 199.007812 774.496094 C 198.699219 772.753906 198.382812 771.035156 198.074219 769.308594 C 196.070312 758.328125 194.167969 747.324219 193.4375 736.023438 C 192.246094 717.574219 192.539062 699.039062 193.492188 680.597656 C 195.398438 643.644531 199.136719 606.703125 202.523438 569.855469 C 208.699219 503.023438 217.035156 436.585938 226.234375 370.136719 C 231.144531 405.179688 234.6875 440.453125 236.300781 475.792969 C 236.351562 476.839844 236.40625 477.886719 236.421875 478.929688 L 236.421875 478.949219 C 236.554688 481.421875 236.648438 483.902344 236.722656 486.390625 C 236.246094 486.15625 235.75 485.898438 235.273438 485.636719 C 234.445312 485.214844 233.617188 484.777344 232.816406 484.300781 C 232.6875 485.144531 232.539062 485.984375 232.433594 486.855469 C 231.609375 492.382812 231 497.9375 230.636719 503.550781 C 230.085938 511.910156 228.714844 521.972656 231.316406 530.113281 C 232.410156 533.558594 234.542969 536.050781 237.085938 538.183594 C 236.421875 566.726562 234.300781 595.15625 231.347656 623.527344 C 228.164062 654.042969 224.054688 684.359375 223.398438 715.085938 C 222.992188 734.625 223.4375 755.175781 226.808594 774.953125 C 226.972656 775.980469 227.148438 776.988281 227.351562 778 C 229.355469 778.84375 231.390625 779.648438 233.398438 780.433594 C 253.835938 788.414062 275 794.074219 296.714844 798.054688 C 319.023438 802.125 347.472656 810.007812 365.21875 791.378906 C 372.660156 783.554688 377.402344 773.492188 381.574219 763.640625 C 387.183594 750.375 392.269531 736.839844 396.921875 723.203125 C 399.945312 714.332031 402.75 705.371094 405.367188 696.34375 C 407.96875 705.371094 410.773438 714.332031 413.796875 723.203125 C 418.449219 736.839844 423.53125 750.375 429.132812 763.640625 C 433.316406 773.492188 438.058594 783.554688 445.5 791.378906 C 463.242188 810.007812 491.695312 802.125 514.003906 798.054688 C 535.71875 794.074219 556.882812 788.414062 577.308594 780.433594 C 579.328125 779.648438 581.363281 778.84375 583.367188 778 C 583.566406 776.988281 583.746094 775.980469 583.917969 774.953125 C 587.289062 755.175781 587.726562 734.625 587.320312 715.085938 C 586.65625 684.359375 582.554688 654.042969 579.367188 623.527344 C 576.417969 595.15625 574.285156 566.726562 573.628906 538.183594 C 576.175781 536.050781 578.308594 533.558594 579.402344 530.113281 C 582.011719 521.972656 580.632812 511.910156 580.082031 503.550781 C 579.71875 497.9375 579.109375 492.382812 578.289062 486.855469 C 578.175781 485.984375 578.03125 485.144531 577.902344 484.300781 C 577.097656 484.777344 576.273438 485.214844 575.445312 485.636719 C 574.96875 485.898438 574.472656 486.15625 574.003906 486.390625 C 574.074219 483.902344 574.164062 481.421875 574.285156 478.949219 L 574.285156 478.929688 C 574.3125 477.886719 574.359375 476.839844 574.425781 475.792969 C 575.226562 458.125 576.507812 440.472656 578.21875 422.851562 C 579.921875 405.238281 582.027344 387.660156 584.476562 370.136719 C 593.683594 436.585938 602.015625 503.023438 608.195312 569.855469 C 611.582031 606.703125 615.328125 643.644531 617.230469 680.597656 C 618.179688 699.039062 618.472656 717.574219 617.28125 736.023438 C 616.550781 747.324219 614.644531 758.328125 612.644531 769.308594 C 612.335938 771.035156 612.027344 772.753906 611.710938 774.496094 C 613.308594 775.121094 614.921875 775.707031 616.535156 776.257812 C 641.785156 784.941406 670.058594 786.523438 696.628906 783.003906 C 697.863281 782.832031 699.085938 782.671875 700.300781 782.46875 C 700.496094 781.261719 700.683594 780.050781 700.859375 778.84375 C 706.203125 743.613281 709.808594 708.167969 712.355469 672.609375 C 717.324219 603.5 717.925781 534.039062 714.332031 464.855469 " fill-opacity="1" fill-rule="nonzero"/><path fill="#104648" d="M 399.628906 514.714844 C 393.914062 515.519531 388.605469 511.125 388.328125 505.324219 C 388.027344 499.390625 393.257812 494.515625 399.140625 495.011719 C 404.191406 495.449219 408.097656 499.867188 408.097656 504.886719 C 408.171875 509.421875 404.566406 514.003906 399.628906 514.714844 M 400.179688 492.609375 C 392.941406 491.800781 386.511719 497.628906 386.457031 504.886719 C 386.414062 511.878906 392.519531 517.570312 399.449219 517.246094 C 406.082031 516.914062 410.960938 511.414062 411.195312 504.945312 C 411.03125 498.691406 406.527344 493.300781 400.179688 492.609375 " fill-opacity="1" fill-rule="nonzero"/><path fill="#104648" d="M 394.300781 631.726562 L 394.300781 631.742188 C 393.476562 633.089844 392.300781 634.222656 390.929688 635.042969 C 389.859375 635.691406 388.691406 636.128906 387.414062 636.308594 C 381.691406 637.132812 376.378906 632.714844 376.105469 626.941406 C 375.828125 621.007812 381.03125 616.109375 386.917969 616.621094 C 387.210938 616.644531 387.484375 616.675781 387.761719 616.734375 C 389.375 617.007812 390.855469 617.707031 392.082031 618.710938 L 392.097656 618.726562 C 394.40625 620.558594 395.875 623.421875 395.890625 626.503906 C 395.914062 628.335938 395.347656 630.152344 394.300781 631.726562 M 391.53125 615.160156 C 390.4375 614.65625 389.246094 614.347656 387.980469 614.203125 C 387.761719 614.179688 387.558594 614.164062 387.332031 614.144531 C 380.375 613.742188 374.289062 619.464844 374.25 626.503906 C 374.199219 633.46875 380.320312 639.1875 387.226562 638.835938 C 388.75 638.765625 390.175781 638.414062 391.457031 637.832031 C 392.792969 637.265625 393.984375 636.460938 395 635.464844 C 397.375 633.234375 398.839844 630.023438 398.972656 626.535156 C 398.867188 621.558594 395.933594 617.097656 391.53125 615.160156 " fill-opacity="1" fill-rule="nonzero"/><path fill="#104648" d="M 311.46875 281.585938 C 300.160156 283.402344 289.144531 285.601562 277.398438 285.203125 C 266.171875 284.8125 255.285156 282.796875 244.527344 280.03125 C 244.109375 278.691406 243.71875 277.339844 243.425781 275.941406 C 242.640625 272.164062 242.179688 268.296875 242.046875 264.429688 C 243.628906 264.835938 245.203125 265.214844 246.796875 265.5625 C 247.4375 265.710938 248.0625 265.855469 248.703125 265.96875 C 257.71875 267.914062 266.917969 269.109375 275.972656 269.878906 C 284.660156 270.625 294.386719 271.523438 303.921875 271.34375 C 304.75 271.320312 305.582031 271.304688 306.410156 271.265625 C 308.226562 271.191406 310.042969 271.085938 311.832031 270.925781 C 311.875 271.871094 311.875 272.84375 311.875 273.792969 C 311.855469 276.363281 311.671875 278.96875 311.46875 281.585938 M 267.289062 217.242188 C 274.472656 224.742188 281.101562 232.480469 286.84375 241.425781 C 292.136719 249.671875 296.625 258.378906 301.410156 266.925781 C 293.53125 267.4375 285.609375 267.914062 277.699219 267.378906 C 268.222656 266.757812 259.007812 265.328125 249.804688 263.601562 C 256.605469 248.738281 262.539062 233.007812 267.289062 217.242188 M 314.402344 266.203125 C 313.503906 266.230469 312.585938 266.261719 311.671875 266.300781 C 309.230469 266.40625 306.773438 266.570312 304.34375 266.738281 C 295.695312 248.1875 283.875 228.042969 267.929688 215.117188 C 267.121094 214.4375 266.277344 213.796875 265.433594 213.171875 C 265.230469 213.683594 265.054688 214.21875 264.867188 214.730469 C 258.859375 230.769531 253.082031 247.011719 247.585938 263.195312 C 245.71875 262.832031 243.863281 262.464844 242 262.101562 C 241.117188 261.914062 240.242188 261.753906 239.375 261.574219 C 239.269531 262.246094 239.171875 262.945312 239.121094 263.640625 C 238.554688 268.613281 238.644531 273.792969 239.648438 278.707031 C 239.777344 279.390625 239.925781 280.0625 240.109375 280.726562 C 241.871094 281.496094 243.660156 282.195312 245.5 282.851562 C 265.78125 290.183594 291.015625 292.183594 311.214844 285.601562 C 312.511719 285.179688 313.792969 284.726562 315.058594 284.207031 C 315.171875 283.144531 315.246094 282.082031 315.277344 281.003906 C 315.421875 277.574219 315.277344 274.054688 314.929688 270.589844 C 314.78125 269.109375 314.605469 267.65625 314.402344 266.203125 " fill-opacity="1" fill-rule="nonzero"/><path fill="#e8e54a" d="M 285.050781 267.617188 C 283.785156 267.617188 282.511719 267.589844 281.25 267.558594 C 279.984375 250.714844 274.925781 234.167969 266.617188 219.449219 C 266.691406 219.191406 266.773438 218.929688 266.851562 218.671875 C 267 218.191406 267.144531 217.722656 267.289062 217.242188 C 274.472656 224.742188 281.101562 232.480469 286.84375 241.425781 C 292.136719 249.671875 296.625 258.378906 301.410156 266.925781 C 295.96875 267.273438 290.515625 267.617188 285.050781 267.617188 " fill-opacity="1" fill-rule="nonzero"/><path fill="#1e7577" d="M 284.929688 267.617188 C 283.703125 267.617188 282.472656 267.597656 281.25 267.566406 C 281.25 267.558594 281.25 267.558594 281.25 267.558594 C 282.511719 267.589844 283.785156 267.617188 285.050781 267.617188 C 290.515625 267.617188 295.96875 267.273438 301.410156 266.925781 C 295.921875 267.28125 290.425781 267.617188 284.929688 267.617188 M 266.617188 219.449219 C 266.609375 219.449219 266.609375 219.449219 266.609375 219.441406 C 266.691406 219.179688 266.773438 218.929688 266.851562 218.671875 C 266.773438 218.929688 266.691406 219.191406 266.617188 219.449219 " fill-opacity="1" fill-rule="nonzero"/><path fill="#15acaf" d="M 280.964844 285.242188 C 282.222656 282.738281 282.917969 279.972656 282.953125 277.167969 C 282.976562 274.847656 282.539062 272.53125 281.734375 270.371094 C 287.449219 270.84375 293.472656 271.28125 299.496094 271.355469 C 299.496094 271.355469 299.503906 271.355469 299.503906 271.355469 C 299.527344 271.355469 299.542969 271.355469 299.566406 271.355469 C 300.167969 271.363281 300.769531 271.371094 301.367188 271.371094 C 302.21875 271.371094 303.070312 271.363281 303.921875 271.34375 C 304.75 271.320312 305.582031 271.304688 306.410156 271.265625 C 308.226562 271.191406 310.042969 271.085938 311.832031 270.925781 C 311.875 271.871094 311.875 272.84375 311.875 273.792969 C 311.855469 276.363281 311.671875 278.96875 311.46875 281.585938 C 301.3125 283.21875 291.390625 285.15625 280.964844 285.242188 " fill-opacity="1" fill-rule="nonzero"/><path fill="#1e7577" d="M 280.957031 285.253906 C 280.957031 285.253906 280.957031 285.242188 280.964844 285.242188 C 291.390625 285.15625 301.3125 283.21875 311.46875 281.585938 C 311.671875 278.96875 311.855469 276.363281 311.875 273.792969 C 311.855469 276.363281 311.671875 278.96875 311.46875 281.585938 C 301.320312 283.21875 291.40625 285.164062 280.957031 285.253906 M 299.566406 271.355469 C 299.542969 271.355469 299.527344 271.355469 299.503906 271.355469 C 299.527344 271.355469 299.542969 271.355469 299.566406 271.355469 M 299.496094 271.355469 C 293.472656 271.28125 287.449219 270.84375 281.734375 270.371094 C 281.734375 270.363281 281.726562 270.355469 281.726562 270.347656 C 287.433594 270.835938 293.472656 271.273438 299.496094 271.355469 " fill-opacity="1" fill-rule="nonzero"/><path fill="#15acaf" d="M 327.210938 107.984375 C 326.429688 107.507812 325.644531 107.019531 324.867188 106.542969 C 322.296875 104.976562 319.703125 103.402344 317.09375 101.863281 C 316.46875 101.5 315.828125 101.109375 315.203125 100.742188 C 306.191406 95.410156 297.046875 90.1875 287.902344 85.070312 C 298.734375 78.144531 306.539062 66.847656 314.054688 55.1875 C 316.378906 51.597656 318.675781 47.949219 321.015625 44.410156 C 321.292969 43.992188 321.566406 43.570312 321.851562 43.15625 C 321.859375 43.140625 321.867188 43.121094 321.882812 43.105469 C 321.882812 43.097656 321.882812 43.097656 321.890625 43.089844 C 323.164062 41.175781 324.460938 39.296875 325.78125 37.453125 C 327.566406 34.988281 329.398438 32.605469 331.335938 30.351562 C 319.679688 46.480469 309.75 63.882812 301.796875 82.132812 C 311.6875 88.386719 320.796875 94.96875 330.671875 101.222656 C 329.535156 103.476562 328.386719 105.730469 327.210938 107.984375 " fill-opacity="1" fill-rule="nonzero"/><path fill="#1e7577" d="M 327.210938 107.984375 C 326.429688 107.507812 325.652344 107.027344 324.867188 106.542969 C 325.644531 107.019531 326.429688 107.507812 327.210938 107.984375 M 317.09375 101.863281 C 316.46875 101.5 315.828125 101.109375 315.203125 100.742188 C 306.191406 95.410156 297.046875 90.1875 287.902344 85.070312 C 297.046875 90.1875 306.191406 95.410156 315.203125 100.742188 C 315.828125 101.109375 316.46875 101.5 317.09375 101.863281 M 321.851562 43.15625 C 321.859375 43.140625 321.867188 43.121094 321.882812 43.105469 C 321.867188 43.121094 321.859375 43.140625 321.851562 43.15625 M 321.890625 43.089844 C 323.164062 41.175781 324.460938 39.296875 325.78125 37.453125 C 324.460938 39.296875 323.164062 41.175781 321.890625 43.089844 " fill-opacity="1" fill-rule="nonzero"/><path fill="#ffffff" d="M 411.414062 427.109375 C 410.296875 424.171875 409.160156 421.277344 408.007812 418.398438 C 407.125 416.183594 406.25 413.996094 405.367188 411.816406 C 405.148438 411.289062 404.945312 410.777344 404.726562 410.257812 C 404.652344 410.085938 404.589844 409.910156 404.515625 409.738281 C 404.589844 409.910156 404.660156 410.085938 404.726562 410.257812 C 404.945312 410.777344 405.148438 411.289062 405.367188 411.816406 C 406.25 413.996094 407.125 416.183594 408.007812 418.398438 C 409.160156 421.277344 410.296875 424.171875 411.414062 427.109375 " fill-opacity="1" fill-rule="nonzero"/><path fill="#15acaf" d="M 411.414062 427.109375 C 410.296875 424.171875 409.160156 421.277344 408.007812 418.398438 C 407.125 416.183594 406.25 413.996094 405.367188 411.816406 C 405.148438 411.289062 404.945312 410.777344 404.726562 410.257812 C 404.660156 410.085938 404.589844 409.910156 404.515625 409.738281 C 404.273438 409.140625 404.03125 408.546875 403.769531 407.945312 C 403.074219 406.261719 402.382812 404.574219 401.671875 402.894531 C 389.40625 373.960938 375.042969 345.972656 361.441406 317.679688 C 345.261719 283.988281 330.523438 249.710938 316.566406 215.0625 C 306.742188 190.695312 297.648438 165.972656 288.007812 141.492188 C 299.777344 132.675781 308.867188 119.71875 315.148438 106.242188 C 316.605469 106.800781 318.066406 107.328125 319.535156 107.816406 C 321.761719 108.5625 324.007812 109.234375 326.253906 109.816406 C 319.453125 122.863281 312.035156 135.929688 302.90625 147.273438 C 336.800781 233.816406 371.28125 320.191406 405.308594 406.707031 C 406.414062 409.496094 407.507812 412.277344 408.601562 415.074219 C 408.699219 415.503906 408.804688 415.933594 408.910156 416.363281 C 409.726562 419.941406 410.570312 423.53125 411.414062 427.109375 " fill-opacity="1" fill-rule="nonzero"/><path fill="#1e7577" d="M 413.871094 431.949219 C 408.8125 425.957031 407.457031 420.71875 404.304688 409.253906 C 404.144531 408.8125 403.957031 408.394531 403.769531 407.945312 C 403.074219 406.261719 402.382812 404.574219 401.671875 402.894531 C 389.40625 373.960938 375.042969 345.972656 361.441406 317.679688 C 345.261719 283.988281 330.523438 249.710938 316.566406 215.0625 C 306.742188 190.695312 297.648438 165.972656 288.007812 141.492188 C 297.648438 165.972656 306.742188 190.695312 316.566406 215.0625 C 330.523438 249.710938 345.261719 283.988281 361.441406 317.679688 C 375.042969 345.972656 389.40625 373.960938 401.671875 402.894531 C 402.382812 404.574219 403.074219 406.261719 403.769531 407.945312 C 404.03125 408.546875 404.273438 409.140625 404.515625 409.738281 C 404.589844 409.910156 404.652344 410.085938 404.726562 410.257812 C 404.945312 410.777344 405.148438 411.289062 405.367188 411.816406 C 406.25 413.996094 407.125 416.183594 408.007812 418.398438 C 409.160156 421.277344 410.296875 424.171875 411.414062 427.109375 C 410.570312 423.53125 409.726562 419.941406 408.910156 416.363281 C 408.804688 415.933594 408.699219 415.503906 408.601562 415.074219 C 408.601562 415.082031 408.609375 415.089844 408.609375 415.097656 C 411.910156 423.476562 410.585938 423.574219 413.871094 431.949219 M 326.253906 109.816406 C 324.007812 109.234375 321.761719 108.5625 319.535156 107.816406 C 321.761719 108.5625 324.015625 109.226562 326.261719 109.800781 C 326.253906 109.800781 326.253906 109.808594 326.253906 109.816406 " fill-opacity="1" fill-rule="nonzero"/><path fill="#15acaf" d="M 409.046875 402.925781 C 408.78125 401.710938 408.503906 400.503906 408.226562 399.285156 C 441.308594 315.261719 474.800781 231.335938 507.695312 147.273438 C 498.59375 135.929688 491.167969 122.871094 484.367188 109.84375 C 488.128906 108.867188 491.875 107.660156 495.570312 106.242188 C 501.851562 119.71875 510.9375 132.675781 522.707031 141.492188 C 513.0625 165.972656 503.976562 190.695312 494.152344 215.0625 C 480.191406 249.710938 465.457031 283.988281 449.277344 317.679688 C 435.675781 345.988281 421.296875 373.996094 409.046875 402.925781 " fill-opacity="1" fill-rule="nonzero"/><path fill="#1e7577" d="M 409.046875 402.925781 C 408.773438 401.71875 408.503906 400.511719 408.226562 399.292969 C 408.226562 399.292969 408.226562 399.292969 408.226562 399.285156 C 408.503906 400.503906 408.78125 401.710938 409.046875 402.925781 C 421.296875 373.996094 435.675781 345.988281 449.277344 317.679688 C 465.457031 283.988281 480.191406 249.710938 494.152344 215.0625 C 503.976562 190.695312 513.0625 165.972656 522.707031 141.492188 C 513.0625 165.972656 503.976562 190.695312 494.152344 215.0625 C 480.191406 249.710938 465.457031 283.988281 449.277344 317.679688 C 435.675781 345.988281 421.296875 373.996094 409.046875 402.925781 M 484.367188 109.84375 C 484.367188 109.84375 484.367188 109.835938 484.367188 109.835938 C 488.128906 108.867188 491.867188 107.652344 495.570312 106.242188 C 491.875 107.660156 488.128906 108.867188 484.367188 109.84375 " fill-opacity="1" fill-rule="nonzero"/><path fill="#15acaf" d="M 483.425781 108.035156 C 482.242188 105.761719 481.085938 103.492188 479.933594 101.222656 C 489.804688 94.96875 498.941406 88.386719 508.816406 82.132812 C 500.675781 63.476562 490.496094 45.726562 478.484375 29.289062 C 481.417969 32.621094 484.140625 36.261719 486.757812 40.050781 C 487.753906 41.484375 488.726562 42.9375 489.703125 44.410156 C 492.042969 47.949219 494.335938 51.597656 496.664062 55.1875 C 504.179688 66.847656 511.984375 78.144531 522.8125 85.070312 C 513.671875 90.1875 504.527344 95.410156 495.511719 100.742188 C 494.890625 101.109375 494.25 101.5 493.625 101.863281 C 491.753906 102.972656 489.894531 104.085938 488.046875 105.210938 C 486.5 106.144531 484.960938 107.085938 483.425781 108.035156 " fill-opacity="1" fill-rule="nonzero"/><path fill="#1e7577" d="M 483.433594 108.042969 C 483.425781 108.035156 483.425781 108.035156 483.425781 108.035156 C 484.960938 107.085938 486.5 106.144531 488.046875 105.210938 C 486.507812 106.144531 484.96875 107.09375 483.433594 108.042969 M 493.625 101.863281 C 494.25 101.5 494.890625 101.109375 495.511719 100.742188 C 504.527344 95.410156 513.671875 90.1875 522.8125 85.070312 C 513.671875 90.1875 504.527344 95.410156 495.511719 100.742188 C 494.890625 101.109375 494.25 101.5 493.625 101.863281 M 486.757812 40.050781 C 484.140625 36.261719 481.417969 32.621094 478.484375 29.289062 C 478.457031 29.257812 478.441406 29.222656 478.410156 29.191406 C 481.367188 32.558594 484.117188 36.222656 486.757812 40.050781 " fill-opacity="1" fill-rule="nonzero"/><path fill="#e8e54a" d="M 398.476562 514.796875 C 398.242188 514.796875 398.015625 514.789062 397.78125 514.773438 C 401.71875 511.941406 403.941406 506.761719 403.023438 501.976562 C 402.488281 499.261719 401.007812 496.820312 398.957031 495.011719 L 399.140625 495.011719 C 404.191406 495.449219 408.097656 499.867188 408.097656 504.886719 C 408.097656 504.929688 408.097656 504.976562 408.097656 505.015625 C 408.097656 509.507812 404.515625 514.011719 399.628906 514.714844 C 399.394531 514.746094 399.15625 514.773438 398.921875 514.789062 C 398.769531 514.796875 398.621094 514.796875 398.476562 514.796875 " fill-opacity="1" fill-rule="nonzero"/><path fill="#1e7577" d="M 398.921875 514.789062 C 399.15625 514.773438 399.394531 514.746094 399.628906 514.714844 C 404.515625 514.011719 408.097656 509.507812 408.097656 505.015625 C 408.097656 509.507812 404.515625 514.011719 399.628906 514.714844 C 399.394531 514.746094 399.15625 514.773438 398.921875 514.789062 " fill-opacity="1" fill-rule="nonzero"/><path fill="#e8e54a" d="M 386.042969 636.40625 C 384.949219 636.40625 383.878906 636.21875 382.882812 635.871094 C 387.023438 633.484375 389.8125 628.683594 389.4375 623.902344 C 389.246094 621.183594 388.054688 618.621094 386.238281 616.585938 C 386.382812 616.585938 386.535156 616.59375 386.691406 616.601562 C 386.765625 616.609375 386.835938 616.621094 386.917969 616.621094 C 387.210938 616.644531 387.484375 616.675781 387.761719 616.734375 C 389.375 617.007812 390.855469 617.707031 392.082031 618.710938 L 392.097656 618.726562 C 394.40625 620.558594 395.875 623.421875 395.890625 626.503906 C 395.890625 626.527344 395.890625 626.5625 395.890625 626.585938 C 395.890625 628.394531 395.324219 630.175781 394.300781 631.726562 L 394.300781 631.742188 C 393.476562 633.089844 392.300781 634.222656 390.929688 635.042969 C 389.859375 635.691406 388.691406 636.128906 387.414062 636.308594 C 386.949219 636.371094 386.488281 636.40625 386.042969 636.40625 " fill-opacity="1" fill-rule="nonzero"/><path fill="#1e7577" d="M 387.414062 636.308594 C 388.691406 636.128906 389.859375 635.691406 390.929688 635.042969 C 392.300781 634.222656 393.476562 633.089844 394.300781 631.742188 L 394.300781 631.726562 C 395.324219 630.175781 395.890625 628.394531 395.890625 626.585938 C 395.890625 628.394531 395.324219 630.175781 394.300781 631.726562 L 394.300781 631.742188 C 393.476562 633.089844 392.300781 634.222656 390.929688 635.042969 C 389.859375 635.691406 388.691406 636.128906 387.414062 636.308594 M 386.691406 616.601562 C 386.535156 616.59375 386.382812 616.585938 386.238281 616.585938 C 386.382812 616.585938 386.535156 616.59375 386.691406 616.601562 " fill-opacity="1" fill-rule="nonzero"/><path fill="#0d5a5b" d="M 339.402344 48.3125 C 339.394531 47.859375 339.382812 47.402344 339.382812 46.949219 C 339.382812 38.09375 340.988281 29.484375 345.941406 21.863281 C 348.066406 18.601562 350.554688 15.851562 353.34375 13.484375 L 353.375 13.46875 C 353.417969 13.453125 353.449219 13.445312 353.480469 13.429688 C 353.503906 13.421875 353.53125 13.410156 353.554688 13.394531 C 353.554688 13.394531 353.554688 13.394531 353.5625 13.394531 C 354.679688 12.957031 355.832031 12.535156 356.992188 12.140625 C 356.992188 12.140625 357 12.140625 357 12.140625 C 357.023438 12.128906 357.046875 12.121094 357.0625 12.113281 C 361.480469 10.605469 366.152344 9.367188 370.988281 8.351562 C 367.730469 10.574219 365 13.597656 363.199219 17.132812 C 360.347656 22.808594 359.972656 29.644531 362.097656 35.621094 C 358.523438 36.96875 354.890625 38.492188 351.421875 40.253906 C 351.414062 40.253906 351.40625 40.253906 351.398438 40.261719 C 351.398438 40.261719 351.390625 40.269531 351.382812 40.269531 C 349.535156 41.210938 347.734375 42.214844 346.015625 43.300781 C 346 43.308594 345.984375 43.316406 345.964844 43.332031 C 343.589844 44.832031 341.371094 46.488281 339.402344 48.3125 " fill-opacity="1" fill-rule="nonzero"/><path fill="#1a393a" d="M 339.402344 48.3125 C 339.394531 47.859375 339.382812 47.402344 339.382812 46.949219 C 339.382812 47.402344 339.394531 47.859375 339.402344 48.3125 C 341.371094 46.488281 343.589844 44.832031 345.964844 43.332031 C 343.589844 44.832031 341.371094 46.488281 339.402344 48.3125 M 351.382812 40.269531 C 351.390625 40.269531 351.398438 40.261719 351.398438 40.261719 C 351.398438 40.261719 351.390625 40.269531 351.382812 40.269531 M 351.421875 40.253906 C 354.890625 38.492188 358.523438 36.96875 362.097656 35.621094 C 362.097656 35.621094 362.097656 35.621094 362.097656 35.628906 C 358.523438 36.976562 354.890625 38.492188 351.421875 40.253906 M 353.480469 13.429688 C 353.503906 13.421875 353.53125 13.410156 353.554688 13.394531 C 353.53125 13.410156 353.503906 13.421875 353.480469 13.429688 M 353.5625 13.394531 C 354.679688 12.957031 355.832031 12.535156 356.992188 12.140625 C 355.832031 12.535156 354.679688 12.957031 353.5625 13.394531 M 357 12.140625 C 357.023438 12.128906 357.046875 12.121094 357.0625 12.113281 C 357.046875 12.121094 357.023438 12.128906 357 12.140625 " fill-opacity="1" fill-rule="nonzero"/><path fill="#0d5a5b" d="M 405.367188 386.652344 C 398.070312 354.605469 390.742188 322.5625 383.8125 290.425781 C 368.515625 219.441406 354.390625 148.171875 342.894531 76.472656 C 341.597656 68.390625 339.910156 59.664062 339.488281 51.046875 C 339.5 51.035156 339.515625 51.019531 339.523438 51.011719 C 343.414062 47.402344 348.285156 44.410156 353.511719 41.921875 C 356.40625 40.535156 359.414062 39.3125 362.429688 38.21875 C 351.917969 71.316406 368.808594 194.839844 389.683594 270.039062 C 391.207031 275.503906 392.851562 281.109375 396.457031 285.472656 C 399.269531 288.867188 403.609375 291.324219 407.902344 291.324219 C 409.121094 291.324219 410.335938 291.132812 411.511719 290.703125 C 419.714844 276.121094 422.777344 261.824219 426.019531 245.40625 C 436.226562 193.832031 446.441406 142.261719 455.484375 90.476562 C 457.117188 81.167969 458.710938 71.722656 457.964844 62.300781 C 457.246094 53.511719 454.261719 44.566406 448.207031 38.183594 C 456.703125 41.273438 465.164062 45.394531 471.226562 51.046875 C 470.804688 59.664062 469.121094 68.390625 467.824219 76.472656 C 456.328125 148.171875 442.199219 219.441406 426.90625 290.425781 C 419.972656 322.5625 412.644531 354.605469 405.367188 386.652344 " fill-opacity="1" fill-rule="nonzero"/><path fill="#1a393a" d="M 405.367188 386.652344 C 398.070312 354.605469 390.742188 322.5625 383.8125 290.425781 C 368.515625 219.441406 354.390625 148.171875 342.894531 76.472656 C 341.597656 68.390625 339.910156 59.664062 339.488281 51.046875 C 339.910156 59.664062 341.597656 68.390625 342.894531 76.472656 C 354.390625 148.171875 368.515625 219.441406 383.8125 290.425781 C 390.742188 322.5625 398.070312 354.605469 405.367188 386.652344 C 412.644531 354.605469 419.972656 322.5625 426.90625 290.425781 C 442.199219 219.441406 456.328125 148.171875 467.824219 76.472656 C 469.121094 68.390625 470.804688 59.664062 471.226562 51.046875 C 470.804688 59.664062 469.121094 68.390625 467.824219 76.472656 C 456.328125 148.171875 442.199219 219.441406 426.90625 290.425781 C 419.972656 322.5625 412.644531 354.605469 405.367188 386.652344 M 471.226562 51.046875 C 465.164062 45.394531 456.703125 41.273438 448.207031 38.183594 C 448.199219 38.183594 448.199219 38.175781 448.199219 38.175781 C 456.695312 41.273438 465.164062 45.378906 471.226562 51.046875 M 339.488281 51.046875 C 339.5 51.035156 339.515625 51.019531 339.523438 51.011719 C 339.515625 51.019531 339.5 51.035156 339.488281 51.046875 M 353.511719 41.921875 C 356.40625 40.535156 359.421875 39.3125 362.429688 38.21875 C 359.414062 39.3125 356.40625 40.535156 353.511719 41.921875 " fill-opacity="1" fill-rule="nonzero"/><path fill="#0d5a5b" d="M 471.316406 48.3125 C 471.308594 48.304688 471.292969 48.296875 471.285156 48.28125 C 465.171875 42.636719 456.742188 38.6875 448.613281 35.613281 C 455.066406 30.101562 456.894531 20.597656 454.292969 12.351562 C 455.324219 12.699219 456.328125 13.078125 457.34375 13.46875 L 457.375 13.484375 C 460.164062 15.851562 462.652344 18.601562 464.785156 21.863281 C 469.734375 29.5 471.332031 38.128906 471.332031 47.007812 C 471.332031 47.445312 471.324219 47.875 471.316406 48.3125 " fill-opacity="1" fill-rule="nonzero"/><path fill="#1a393a" d="M 471.316406 48.3125 C 471.324219 47.875 471.332031 47.445312 471.332031 47.007812 C 471.332031 47.445312 471.324219 47.875 471.316406 48.3125 M 471.285156 48.28125 C 465.164062 42.636719 456.734375 38.6875 448.597656 35.628906 C 448.605469 35.621094 448.605469 35.621094 448.613281 35.613281 C 456.742188 38.6875 465.171875 42.636719 471.285156 48.28125 " fill-opacity="1" fill-rule="nonzero"/><path fill="#cbcbc7" d="M 124.277344 779.175781 C 124.277344 779.175781 124.277344 779.175781 124.285156 779.175781 C 124.277344 779.175781 124.277344 779.175781 124.277344 779.175781 M 124.269531 779.175781 C 121.117188 779.175781 117.972656 779.121094 114.816406 779.03125 C 117.972656 779.121094 121.117188 779.175781 124.269531 779.175781 M 114.695312 779.023438 C 114.339844 779.015625 113.984375 779 113.625 778.988281 C 104.636719 701.25 99.472656 623.496094 99.472656 545.652344 C 99.472656 623.496094 104.636719 701.25 113.625 778.988281 C 113.984375 779 114.339844 779.015625 114.695312 779.023438 M 172.703125 110.660156 C 172.703125 110.644531 172.710938 110.644531 172.71875 110.636719 C 172.710938 110.644531 172.703125 110.644531 172.703125 110.660156 M 182.746094 105.578125 C 181.941406 105.195312 181.109375 104.992188 180.25 104.992188 C 181.109375 104.992188 181.941406 105.195312 182.746094 105.578125 M 180.234375 104.992188 C 180.234375 104.992188 180.242188 104.992188 180.242188 104.992188 C 180.242188 104.992188 180.234375 104.992188 180.234375 104.992188 " fill-opacity="1" fill-rule="nonzero"/><path fill="#0e7571" d="M 124.277344 779.175781 C 124.277344 779.175781 124.269531 779.175781 124.269531 779.175781 C 121.117188 779.175781 117.972656 779.121094 114.816406 779.03125 C 114.777344 779.023438 114.738281 779.023438 114.695312 779.023438 C 114.339844 779.015625 113.984375 779 113.625 778.988281 C 104.636719 701.25 99.472656 623.496094 99.472656 545.652344 C 99.480469 490.421875 102.082031 435.144531 107.765625 379.808594 C 110.472656 353.429688 113.203125 326.921875 116.519531 300.546875 C 124.253906 256.15625 133.378906 212.476562 148.480469 169.507812 C 153.484375 155.269531 158.90625 141.148438 164.878906 127.269531 C 167.230469 121.785156 169.394531 115.921875 172.582031 110.847656 C 172.621094 110.78125 172.660156 110.71875 172.703125 110.660156 C 172.703125 110.644531 172.710938 110.644531 172.71875 110.636719 C 175.304688 106.582031 177.859375 104.992188 180.234375 104.992188 C 180.234375 104.992188 180.242188 104.992188 180.242188 104.992188 C 180.242188 104.992188 180.25 104.992188 180.25 104.992188 C 181.109375 104.992188 181.941406 105.195312 182.746094 105.578125 C 182.769531 105.585938 182.785156 105.59375 182.808594 105.601562 C 183.539062 105.964844 184.269531 106.484375 184.949219 107.085938 C 186.96875 108.902344 188.703125 111.648438 189.992188 114.527344 C 172.871094 120.5625 165.382812 140.542969 160.617188 158.21875 C 113.003906 334.644531 113.554688 520.082031 117 702.800781 C 117.492188 728.757812 119.015625 757.023438 131.054688 779.09375 C 128.800781 779.152344 126.539062 779.175781 124.285156 779.175781 C 124.277344 779.175781 124.277344 779.175781 124.277344 779.175781 " fill-opacity="1" fill-rule="nonzero"/><path fill="#0e7571" d="M 193.730469 113.265625 C 193.6875 113.152344 193.648438 113.027344 193.617188 112.90625 C 193.082031 111.277344 192.457031 109.695312 191.695312 108.21875 C 191.5 107.832031 191.289062 107.457031 191.070312 107.085938 C 190.792969 106.632812 190.519531 106.183594 190.210938 105.761719 C 213.222656 99.714844 236 90.089844 257.570312 81.070312 C 270.160156 75.808594 282.554688 70.109375 294.753906 64.042969 C 298.125 62.375 301.871094 60.742188 305.695312 59.039062 C 304.230469 61.125 302.746094 63.183594 301.222656 65.195312 C 265.765625 81.589844 230.691406 100.859375 193.730469 113.265625 " fill-opacity="1" fill-rule="nonzero"/><path fill="#1a393a" d="M 193.617188 112.90625 C 193.082031 111.277344 192.457031 109.695312 191.695312 108.21875 C 192.457031 109.695312 193.082031 111.277344 193.617188 112.90625 M 191.070312 107.085938 C 190.792969 106.632812 190.519531 106.183594 190.210938 105.761719 C 190.519531 106.183594 190.792969 106.632812 191.070312 107.085938 " fill-opacity="1" fill-rule="nonzero"/><path fill="#0e7571" d="M 617.152344 112.753906 C 579.863281 100.015625 544.457031 80.398438 508.597656 63.988281 C 507.363281 62.355469 506.195312 60.710938 505.019531 59.039062 C 508.847656 60.742188 512.59375 62.375 515.964844 64.042969 C 528.164062 70.109375 540.550781 75.808594 553.144531 81.070312 C 574.707031 90.089844 597.492188 99.714844 620.507812 105.761719 C 620.199219 106.183594 619.921875 106.632812 619.648438 107.085938 C 618.601562 108.828125 617.816406 110.734375 617.152344 112.753906 " fill-opacity="1" fill-rule="nonzero"/><path fill="#0e7571" d="M 686.359375 779.167969 C 685.128906 779.167969 683.886719 779.160156 682.648438 779.152344 C 682.226562 779.144531 681.804688 779.144531 681.382812 779.128906 C 693.425781 757.039062 694.96875 728.757812 695.460938 702.800781 C 698.90625 520.082031 699.457031 334.644531 651.84375 158.21875 C 647.003906 140.28125 639.371094 119.996094 621.714844 114.277344 C 621.464844 114.179688 621.203125 114.105469 620.953125 114.019531 C 621.027344 113.855469 621.105469 113.695312 621.1875 113.53125 C 622.429688 111.035156 623.976562 108.691406 625.765625 107.085938 C 626.449219 106.484375 627.179688 105.964844 627.90625 105.601562 C 628.734375 105.210938 629.59375 104.992188 630.476562 104.992188 C 632.890625 104.992188 635.496094 106.632812 638.136719 110.847656 C 641.324219 115.921875 643.488281 121.785156 645.835938 127.269531 C 651.8125 141.148438 657.234375 155.269531 662.234375 169.507812 C 677.335938 212.476562 686.464844 256.15625 694.191406 300.546875 C 697.511719 326.921875 700.238281 353.429688 702.953125 379.808594 C 708.632812 435.144531 711.238281 490.421875 711.246094 545.652344 C 711.246094 623.496094 706.082031 701.25 697.089844 778.988281 C 696.378906 779.015625 695.664062 779.039062 694.953125 779.054688 C 692.097656 779.136719 689.230469 779.167969 686.359375 779.167969 " fill-opacity="1" fill-rule="nonzero"/><path fill="#1a393a" d="M 682.648438 779.152344 C 682.226562 779.144531 681.804688 779.144531 681.382812 779.136719 C 681.382812 779.136719 681.382812 779.136719 681.382812 779.128906 C 681.804688 779.144531 682.226562 779.144531 682.648438 779.152344 M 694.953125 779.054688 C 695.664062 779.039062 696.378906 779.015625 697.089844 778.988281 C 706.082031 701.25 711.246094 623.496094 711.246094 545.652344 C 711.246094 623.496094 706.082031 701.25 697.089844 778.988281 C 696.378906 779.015625 695.664062 779.039062 694.953125 779.054688 M 620.953125 114.019531 C 621.027344 113.855469 621.105469 113.695312 621.1875 113.53125 C 621.105469 113.695312 621.027344 113.855469 620.953125 114.019531 " fill-opacity="1" fill-rule="nonzero"/><path fill="#0e7571" d="M 556.460938 546.890625 C 562.324219 531.792969 559.851562 513.800781 549.132812 501.539062 C 550.480469 501.09375 551.777344 500.65625 552.984375 500.234375 C 553.46875 500.0625 553.941406 499.902344 554.386719 499.738281 C 559.964844 497.761719 565.214844 495.304688 570.152344 492.351562 C 571.433594 491.613281 572.683594 490.828125 573.890625 489.984375 C 574.5625 489.546875 575.242188 489.082031 575.898438 488.613281 C 577.1875 497.296875 578.039062 506.121094 578.039062 514.863281 C 578.039062 516.726562 578 518.582031 577.917969 520.433594 C 577.683594 526.058594 576.214844 530.097656 573.539062 533.503906 C 572.566406 534.769531 571.417969 535.960938 570.097656 537.097656 C 568.871094 538.199219 567.46875 539.246094 565.953125 540.324219 C 562.800781 542.535156 559.632812 544.71875 556.460938 546.890625 " fill-opacity="1" fill-rule="nonzero"/><path fill="#1a393a" d="M 556.460938 546.90625 C 556.460938 546.90625 556.460938 546.898438 556.460938 546.890625 C 559.632812 544.71875 562.800781 542.535156 565.953125 540.324219 C 567.46875 539.246094 568.871094 538.199219 570.097656 537.097656 C 571.417969 535.960938 572.566406 534.769531 573.539062 533.503906 C 576.214844 530.097656 577.683594 526.058594 577.917969 520.433594 C 578 518.582031 578.039062 516.726562 578.039062 514.863281 C 578.039062 516.726562 578 518.582031 577.917969 520.433594 C 577.683594 526.058594 576.214844 530.097656 573.539062 533.503906 C 572.566406 534.769531 571.417969 535.960938 570.097656 537.097656 C 568.871094 538.199219 567.46875 539.246094 565.953125 540.324219 C 562.800781 542.546875 559.632812 544.726562 556.460938 546.90625 M 549.132812 501.539062 C 549.125 501.539062 549.125 501.539062 549.125 501.539062 C 550.480469 501.09375 551.777344 500.65625 552.984375 500.234375 C 551.777344 500.65625 550.480469 501.09375 549.132812 501.539062 " fill-opacity="1" fill-rule="nonzero"/><path fill="#0e7571" d="M 562.21875 781.40625 C 577.660156 706.1875 575.476562 626.1875 553.933594 552.566406 C 558.941406 549.023438 563.828125 545.238281 568.757812 541.808594 C 569.238281 541.484375 569.707031 541.148438 570.183594 540.800781 C 570.914062 569.53125 572.882812 598.238281 575.867188 626.925781 C 579.035156 657.285156 582.101562 687.894531 582.539062 718.457031 C 582.554688 719.78125 582.5625 721.09375 582.5625 722.414062 C 582.570312 740.917969 580.828125 758.863281 577.933594 776.785156 C 572.714844 778.375 567.46875 779.921875 562.21875 781.40625 " fill-opacity="1" fill-rule="nonzero"/><path fill="#1a393a" d="M 562.21875 781.40625 C 567.46875 779.921875 572.714844 778.375 577.933594 776.785156 C 580.828125 758.863281 582.570312 740.917969 582.5625 722.414062 C 582.570312 740.917969 580.828125 758.863281 577.933594 776.785156 C 572.714844 778.382812 567.46875 779.921875 562.21875 781.40625 M 553.933594 552.566406 C 558.933594 549.03125 563.828125 545.238281 568.757812 541.808594 C 563.828125 545.238281 558.941406 549.023438 553.933594 552.574219 " fill-opacity="1" fill-rule="nonzero"/><path fill="#0e7571" d="M 549.457031 496.511719 C 555.503906 452.058594 566.757812 408.296875 582.960938 366.460938 C 582.757812 367.546875 582.554688 368.644531 582.375 369.746094 C 578.03125 393.472656 574.863281 417.335938 572.859375 441.5 C 571.5625 457.09375 570.71875 472.695312 570.242188 488.28125 C 563.773438 491.46875 557.085938 494.199219 550.226562 496.292969 C 549.96875 496.367188 549.71875 496.4375 549.457031 496.511719 " fill-opacity="1" fill-rule="nonzero"/><path fill="#0e7571" d="M 248.242188 781.332031 C 245.625 780.585938 243.011719 779.839844 240.402344 779.070312 C 237.859375 778.316406 235.3125 777.554688 232.785156 776.785156 C 229.890625 758.863281 228.148438 740.917969 228.15625 722.414062 C 228.15625 721.09375 228.164062 719.78125 228.179688 718.457031 C 228.617188 687.894531 231.679688 657.285156 234.851562 626.925781 C 237.839844 598.238281 239.796875 569.53125 240.53125 540.800781 C 241.011719 541.148438 241.480469 541.484375 241.960938 541.808594 C 246.027344 544.644531 250.082031 547.726562 254.191406 550.710938 C 254.976562 551.285156 255.773438 551.855469 256.566406 552.421875 C 234.980469 626.074219 232.785156 706.109375 248.242188 781.332031 " fill-opacity="1" fill-rule="nonzero"/><path fill="#1a393a" d="M 248.25 781.351562 C 245.632812 780.605469 243.011719 779.839844 240.402344 779.070312 C 243.011719 779.839844 245.625 780.585938 248.242188 781.332031 C 248.242188 781.339844 248.242188 781.339844 248.25 781.351562 M 232.785156 776.785156 C 229.890625 758.863281 228.148438 740.917969 228.15625 722.414062 C 228.148438 740.917969 229.890625 758.863281 232.785156 776.785156 M 254.191406 550.710938 C 250.082031 547.726562 246.027344 544.644531 241.960938 541.808594 C 246.035156 544.636719 250.082031 547.71875 254.191406 550.710938 " fill-opacity="1" fill-rule="nonzero"/><path fill="#0e7571" d="M 253.925781 546.664062 C 250.867188 544.5625 247.8125 542.457031 244.765625 540.324219 C 243.238281 539.246094 241.855469 538.199219 240.621094 537.097656 C 239.300781 535.960938 238.148438 534.769531 237.175781 533.503906 C 234.503906 530.097656 233.035156 526.058594 232.800781 520.433594 C 232.71875 518.582031 232.679688 516.726562 232.679688 514.863281 C 232.679688 506.121094 233.527344 497.296875 234.808594 488.613281 C 235.476562 489.082031 236.15625 489.546875 236.828125 489.984375 C 238.035156 490.828125 239.285156 491.613281 240.566406 492.351562 C 245.5 495.304688 250.753906 497.761719 256.332031 499.738281 C 256.972656 499.964844 257.644531 500.199219 258.339844 500.445312 C 259.09375 500.703125 259.867188 500.972656 260.667969 501.238281 C 260.910156 501.3125 261.15625 501.402344 261.40625 501.480469 C 250.671875 513.6875 248.152344 531.582031 253.925781 546.664062 " fill-opacity="1" fill-rule="nonzero"/><path fill="#1a393a" d="M 253.925781 546.6875 C 250.882812 544.582031 247.804688 542.472656 244.765625 540.324219 C 243.238281 539.246094 241.855469 538.199219 240.621094 537.097656 C 239.300781 535.960938 238.148438 534.769531 237.175781 533.503906 C 234.503906 530.097656 233.035156 526.058594 232.800781 520.433594 C 232.71875 518.582031 232.679688 516.726562 232.679688 514.863281 C 232.679688 516.726562 232.71875 518.582031 232.800781 520.433594 C 233.035156 526.058594 234.503906 530.097656 237.175781 533.503906 C 238.148438 534.769531 239.300781 535.960938 240.621094 537.097656 C 241.855469 538.199219 243.238281 539.246094 244.765625 540.324219 C 247.8125 542.457031 250.867188 544.5625 253.925781 546.664062 C 253.925781 546.671875 253.925781 546.679688 253.925781 546.6875 M 260.667969 501.238281 C 259.867188 500.972656 259.09375 500.703125 258.339844 500.445312 C 259.09375 500.703125 259.875 500.964844 260.667969 501.238281 " fill-opacity="1" fill-rule="nonzero"/><path fill="#0e7571" d="M 261 496.4375 L 260.488281 496.292969 C 253.632812 494.199219 246.945312 491.46875 240.476562 488.28125 C 239.996094 472.695312 239.15625 457.09375 237.859375 441.5 C 235.855469 417.335938 232.6875 393.472656 228.339844 369.746094 C 228.269531 369.269531 228.179688 368.789062 228.089844 368.3125 C 228.058594 368.132812 228.023438 367.945312 227.992188 367.757812 C 243.929688 409.179688 255.027344 452.457031 261 496.4375 " fill-opacity="1" fill-rule="nonzero"/><path fill="#1a393a" d="M 260.488281 496.292969 C 253.632812 494.199219 246.945312 491.46875 240.476562 488.28125 C 239.996094 472.695312 239.15625 457.09375 237.859375 441.5 C 235.855469 417.335938 232.6875 393.472656 228.339844 369.746094 C 232.6875 393.472656 235.855469 417.335938 237.859375 441.5 C 239.15625 457.09375 239.996094 472.695312 240.476562 488.28125 C 246.945312 491.46875 253.632812 494.199219 260.488281 496.292969 M 228.089844 368.3125 C 228.050781 368.117188 228.015625 367.921875 227.976562 367.726562 C 227.984375 367.742188 227.984375 367.75 227.992188 367.757812 C 228.023438 367.945312 228.058594 368.132812 228.089844 368.3125 " fill-opacity="1" fill-rule="nonzero"/></svg>