<svg xmlns="http://www.w3.org/2000/svg" width="100" height="100" viewBox="0 0 810 810">
  <path fill="#737373" d="M 476.246094 21.945312 C 477.390625 21.996094 478.527344 22.078125 479.664062 22.195312 C 480.796875 22.3125 481.925781 22.464844 483.039062 22.648438 C 484.15625 22.832031 485.253906 23.046875 486.339844 23.292969 C 487.425781 23.542969 488.492188 23.820312 489.535156 24.132812 C 490.578125 24.441406 491.597656 24.78125 492.59375 25.152344 C 493.585938 25.519531 494.550781 25.917969 495.484375 26.34375 C 496.417969 26.765625 497.320312 27.21875 498.183594 27.691406 C 499.046875 28.167969 499.875 28.667969 500.660156 29.191406 C 501.449219 29.714844 502.191406 30.257812 502.894531 30.824219 C 503.597656 31.386719 504.253906 31.972656 504.863281 32.574219 C 505.472656 33.171875 506.035156 33.789062 506.546875 34.421875 C 507.058594 35.054688 507.519531 35.699219 507.929688 36.355469 C 508.339844 37.011719 508.695312 37.675781 508.996094 38.351562 C 509.300781 39.023438 509.550781 39.703125 509.742188 40.390625 C 509.9375 41.078125 510.074219 41.765625 510.15625 42.457031 C 510.238281 43.148438 510.265625 43.839844 510.234375 44.527344 C 510.203125 45.21875 510.117188 45.902344 509.976562 46.585938 C 509.832031 47.265625 509.636719 47.941406 509.382812 48.605469 C 509.128906 49.273438 508.824219 49.929688 508.464844 50.574219 C 508.101562 51.21875 507.6875 51.851562 507.222656 52.46875 C 506.757812 53.085938 506.242188 53.6875 505.675781 54.273438 C 505.113281 54.859375 504.5 55.421875 503.839844 55.96875 C 503.179688 56.515625 502.472656 57.039062 501.726562 57.539062 C 500.976562 58.039062 500.1875 58.519531 499.359375 58.96875 C 498.527344 59.421875 497.660156 59.847656 496.757812 60.246094 C 495.855469 60.644531 494.921875 61.015625 493.953125 61.355469 C 492.984375 61.699219 491.992188 62.011719 490.96875 62.289062 C 489.945312 62.570312 488.902344 62.820312 487.832031 63.039062 C 486.765625 63.257812 485.679688 63.441406 484.578125 63.59375 C 483.472656 63.746094 482.359375 63.863281 481.230469 63.949219 C 480.105469 64.035156 478.972656 64.085938 477.832031 64.105469 C 476.691406 64.125 475.546875 64.105469 474.40625 64.058594 C 473.261719 64.007812 472.121094 63.921875 470.988281 63.804688 C 469.851562 63.6875 468.726562 63.539062 467.613281 63.355469 C 466.496094 63.171875 465.394531 62.957031 464.3125 62.707031 C 463.226562 62.460938 462.160156 62.179688 461.117188 61.871094 C 460.070312 61.558594 459.050781 61.21875 458.058594 60.851562 C 457.0625 60.480469 456.101562 60.085938 455.164062 59.660156 C 454.230469 59.234375 453.332031 58.785156 452.46875 58.308594 C 451.601562 57.832031 450.777344 57.332031 449.992188 56.808594 C 449.203125 56.289062 448.457031 55.742188 447.757812 55.179688 C 447.054688 54.613281 446.398438 54.03125 445.789062 53.429688 C 445.179688 52.828125 444.617188 52.210938 444.105469 51.582031 C 443.59375 50.949219 443.132812 50.304688 442.722656 49.648438 C 442.3125 48.992188 441.957031 48.328125 441.652344 47.652344 C 441.351562 46.976562 441.101562 46.296875 440.910156 45.609375 C 440.714844 44.925781 440.578125 44.234375 440.496094 43.546875 C 440.414062 42.855469 440.386719 42.164062 440.417969 41.472656 C 440.449219 40.785156 440.535156 40.097656 440.675781 39.417969 C 440.816406 38.734375 441.015625 38.0625 441.269531 37.394531 C 441.519531 36.730469 441.828125 36.074219 442.1875 35.425781 C 442.550781 34.78125 442.960938 34.148438 443.425781 33.53125 C 443.894531 32.914062 444.40625 32.3125 444.972656 31.726562 C 445.539062 31.144531 446.152344 30.578125 446.8125 30.03125 C 447.472656 29.488281 448.175781 28.964844 448.925781 28.460938 C 449.675781 27.960938 450.464844 27.484375 451.292969 27.03125 C 452.121094 26.578125 452.988281 26.152344 453.890625 25.753906 C 454.796875 25.355469 455.730469 24.988281 456.699219 24.644531 C 457.664062 24.304688 458.660156 23.992188 459.683594 23.710938 C 460.703125 23.429688 461.75 23.179688 462.816406 22.964844 C 463.886719 22.746094 464.972656 22.558594 466.074219 22.40625 C 467.175781 22.253906 468.292969 22.136719 469.417969 22.050781 C 470.546875 21.964844 471.679688 21.914062 472.820312 21.894531 C 473.960938 21.878906 475.101562 21.894531 476.246094 21.945312 Z M 476.246094 21.945312 " fill-opacity="1" fill-rule="nonzero"/>
  <path fill="#292f33" d="M 666.914062 550.289062 C 666.914062 550.289062 745.570312 581.210938 782.675781 552.253906 C 785.46875 526.128906 708.753906 506.816406 708.753906 506.816406 Z M 168.9375 501.371094 C 168.9375 501.371094 51.585938 676.097656 18.074219 646.089844 C 18.074219 646.089844 8.585938 614.902344 45.535156 551.917969 C 82.507812 488.910156 168.9375 501.371094 168.9375 501.371094 Z M 168.9375 501.371094 " fill-opacity="1" fill-rule="nonzero"/>
  <path fill="#a6a6a6" d="M 442.195312 38.558594 C 442.195312 38.558594 251.589844 48.160156 135.535156 403.554688 C 302.851562 403.554688 510.289062 415.949219 510.289062 415.949219 C 510.289062 415.949219 684.417969 504.851562 708.753906 515.726562 C 733.066406 526.597656 782.675781 552.273438 782.675781 552.273438 C 782.675781 552.273438 806.992188 428.785156 789.488281 335.929688 C 771.984375 243.070312 688.324219 42.511719 442.195312 38.558594 Z M 442.195312 38.558594 " fill-opacity="1" fill-rule="nonzero"/>
  <path fill="#a6a6a6" d="M 75.765625 492.839844 C 34.839844 560.757812 3.964844 622.804688 18.074219 646.089844 C 18.074219 646.089844 13.542969 629.101562 35.378906 609.632812 C 55.292969 591.882812 98.003906 575.652344 179.628906 575.652344 C 303.1875 575.652344 470.011719 676.078125 539.515625 699.832031 C 592.542969 717.960938 603.707031 704.03125 633.019531 671.921875 C 664.277344 637.675781 715.988281 517.78125 715.988281 517.78125 C 715.988281 517.78125 549.207031 426.082031 450.945312 389.9375 C 352.6875 353.789062 331.320312 358.078125 300.195312 358.65625 C 231.964844 359.929688 181.550781 373.636719 135.535156 403.554688 C 135.535156 403.554688 102.179688 449.011719 75.765625 492.839844 Z M 75.765625 492.839844 " fill-opacity="1" fill-rule="nonzero"/>
  <path fill="#d9d9d9" d="M 683.8125 184.105469 C 670.195312 107.234375 594.261719 70.777344 594.261719 70.777344 C 551.953125 51.0625 501.425781 38.445312 441.011719 37.484375 C 441.011719 37.484375 168.800781 35.140625 135.558594 403.535156 C 135.558594 403.535156 192.289062 378.640625 312.386719 385.828125 C 475.347656 395.609375 634.203125 477.746094 669.300781 493.265625 C 687.832031 431.21875 699.820312 274.507812 683.8125 184.105469 Z M 683.8125 184.105469 " fill-opacity="1" fill-rule="nonzero"/>
</svg>